<svg xmlns="http://www.w3.org/2000/svg" viewBox="0 0 64 64" width="24" height="24">
    <path d="M3 16h12a1 1 0 0 0 1-1V3a1 1 0 0 0-1-1H3a1 1 0 0 0-1 1v12a1 1 0 0 0 1 1zM4 4h10v10H4V4zm34-2H26a1 1 0 0 0-1 1v12a1 1 0 0 0 1 1h12a1 1 0 0 0 1-1V3a1 1 0 0 0-1-1zm-1 12H27V4h10v10zM61 2H49a1 1 0 0 0-1 1v12a1 1 0 0 0 1 1h12a1 1 0 0 0 1-1V3a1 1 0 0 0-1-1zm-1 12H50V4h10v10zM9 39c3.86 0 7-3.141 7-7s-3.14-7-7-7-7 3.141-7 7 3.14 7 7 7zm0-12c2.757 0 5 2.243 5 5s-2.243 5-5 5-5-2.243-5-5 2.243-5 5-5zm23-2c-3.86 0-7 3.141-7 7s3.14 7 7 7 7-3.141 7-7-3.14-7-7-7zm0 12c-2.757 0-5-2.243-5-5s2.243-5 5-5 5 2.243 5 5-2.243 5-5 5zm23-12c-3.86 0-7 3.141-7 7s3.14 7 7 7 7-3.141 7-7-3.14-7-7-7zm0 12c-2.757 0-5-2.243-5-5s2.243-5 5-5 5 2.243 5 5-2.243 5-5 5zM2.149 61.525c.183.295.504.475.851.475h12a1.001 1.001 0 0 0 .895-1.448l-6-12c-.339-.678-1.45-.678-1.789 0l-6 12a1 1 0 0 0 .043.973zM9 51.236 13.382 60H4.618L9 51.236zm29.851 10.289a1 1 0 0 0 .044-.973l-6-12c-.339-.678-1.45-.678-1.789 0l-6 12A1 1 0 0 0 26 62h12c.347 0 .668-.18.851-.475zM27.618 60 32 51.236 36.382 60h-8.764zM49 62h12a1.001 1.001 0 0 0 .895-1.448l-6-12c-.339-.678-1.45-.678-1.789 0l-6 12A1 1 0 0 0 49 62zm6-10.764L59.382 60h-8.764L55 51.236zM18 8h5v2h-5zM41 8h5v2h-5zM18 31h5v2h-5zM41 31h5v2h-5zM18 56h5v2h-5zM41 56h5v2h-5zM54 18h2v5h-2zM8 41h2v5H8z"
          fill="#000000" class="color000 svgShape"/>
</svg>