<svg xmlns="http://www.w3.org/2000/svg" enable-background="new 0 0 103 103" viewBox="0 0 103 103" width="24"
     height="24">
    <path d="M93.4794922 96.7070313V89.668457c0-.5527344-.4472656-1-1-1s-1 .4472656-1 1v6.8701172H30.8994141V74.4901123c.0005493.0001221.0010376.0003662.0015869.0004883 2.5370102.7380295 5.3263588.9217529 8.1300049.4500732.000061 0 .0001831 0 .0002441 0v9.7678223c0 .5527344.4472656 1 1 1h2.9420166l-.6500244.6503906c-.390625.390625-.390625 1.0234375 0 1.4140625.3906136.3906174 1.0234261.3906326 1.4140625 0l2.3551636-2.3562012c.3876877-.3861542.3923149-1.0257339 0-1.4165039l-2.3551636-2.3562012c-.390625-.390625-1.0234375-.390625-1.4140625 0s-.390625 1.0234375 0 1.4140625l.6500244.6503906H41.03125v-9.2180176c3.8599243-1.0800781 7.3997803-3.4199219 9.9297485-6.9099121 2.2387085-3.0881348 3.3883667-6.645752 3.5195313-10.2038574 2.8729248-.1779785 5.1581421-2.5657959 5.1581421-5.482666 0-3.0322266-2.4677734-5.5-5.5-5.5-.8686523 0-1.6852417.2102051-2.4141235.5727539-.0012817-.0020752-.0023193-.0041504-.0036011-.0062256-1.5152855-2.4841309-3.6698189-4.6651611-6.4799805-6.2999268.1799927-.1800537.2900391-.4300537.2900391-.710083v-9c0-.5499268-.4500122-1-1-1h-9c-.5500488 0-1 .4500732-1 1v7.3000488c-1.2300415.0999756-2.4500122.3099365-3.6300049.6500244-.0005493.0001221-.0010376.0003662-.0015869.0004883.0002995-2.5534706-.0010853 9.2500763.0029297-24.9729004 0-2.7368412-1.2164516-5.5229874-3.5466309-7.3922119-.0304565-.0247803-.0563354-.0531006-.0871582-.0775146h56.7402344c3.8961182-.0541992 7.4707031 3.1859131 7.4707031 7.4697266v69.7207031c0 .5527344.4472656 1 1 1s1-.4472656 1-1V13.9282227c0-5.1130371-4.1195679-9.4697266-9.4707031-9.4697266H21.4492188c-.0001221 0-.0001831 0-.0003052 0-5.2211304.0007324-9.4684448 4.2485352-9.4684448 9.4697266v6.8427734c0 .5527344.4472656 1 1 1s1-.4472656 1-1v-6.8427734c0-4.1188965 3.3504028-7.4694824 7.4692383-7.4697266 4.1376839 0 7.449707 3.3661499 7.449707 7.4697266v15.1855469H13.9804688v-3.9052734c0-.5527344-.4472656-1-1-1s-1 .4472656-1 1v4.9052734c0 .5527344.4472656 1 1 1h15.9189453v8.4875488c-3.0593262 1.25-5.8187866 3.3398438-7.8984375 6.2092285-2.9099731 4.0100098-4.0800171 8.9000244-3.3099976 13.7800293.5999756 3.8100586 2.3300171 7.2600098 4.9699707 9.9699707l-1.7199707 2.3601074c-.0700073 0-.1500244.0100098-.2200317.0200195-.5999756.0998535-1.1399536.4199219-1.5.9199219L8.7609863 87.2606201c-.7399902 1.0299072-.5100098 2.4699707.5100098 3.2099609l2.8399658 2.0599365c.4100342.3000488.8800049.4400635 1.3500366.4400635.7099609 0 1.4099731-.3299561 1.8599854-.9500732l10.460022-14.3898926c.3599854-.5.5099487-1.1101074.4099731-1.7199707-.0100098-.0800781-.0300293-.1500244-.039978-.2199707l1.7099609-2.3500977c.3394775.1697998.6889648.3294678 1.0384521.4692383v22.7316895H9.3251953c-.5527344 0-1 .4472656-1 1s.4472656 1 1 1h83.6357422c.5527344 0 1-.4472656 1-1C93.9609375 97.1831055 93.7624512 96.8835449 93.4794922 96.7070313zM57.6386719 51.894043c0 1.826416-1.4117432 3.3138428-3.1985474 3.4694824-.1702881-2.2926025-.7584839-4.5452881-1.753479-6.6293945.4437256-.2075195.9296875-.3400879 1.4520264-.3400879C56.0683594 48.394043 57.6386719 49.9643555 57.6386719 51.894043zM36.5310059 31.9505615h7v7h-2.2700195c-1.5499878-.4599609-3.1400146-.7099609-4.7299805-.75V31.9505615zM13.7109985 90.8505859c-.1000366.1300049-.2900391.1600342-.4299927.0600586l-2.8300171-2.0500488c-.1400146-.0999756-.1699829-.2900391-.0700073-.4299316.9126282-1.2555313-3.5925722 4.9423981 10.460022-14.3901367.0599976-.0899658.1399536-.119873.1999512-.119873.0100098-.0100098.0300293-.0100098.0400391-.0100098.0499878 0 .1199951.0100098.1799927.0599365l2.8399658 2.0599365c.1300049.1000977.1600342.2900391.0599976.4200439l-.3499756.4801025L13.7109985 90.8505859zM24.8309937 74.0905762l-1.960022-1.4199219 1.2700195-1.7399902c.4357586.3776855 1.239069.9747009 1.9599609 1.4199219L24.8309937 74.0905762zM19.6709595 59.2805176c-.7000122-4.3598633.3500366-8.7199707 2.9500122-12.289917 5.4431324-7.5123672 15.9174652-8.8720093 23.0599976-3.6600342 7.3699951 5.3601074 9.0100098 15.6999512 3.6600342 23.0700684-2.5900269 3.5699463-6.4200439 5.9199219-10.7800293 6.6099854C29.6220703 74.4492264 21.1044044 68.3407288 19.6709595 59.2805176zM5.1474609 96.5415039H3.5332031c-.5527344 0-1 .4472656-1 1s.4472656 1 1 1h1.6142578c.5527344 0 1-.4472656 1-1S5.7001953 96.5415039 5.1474609 96.5415039zM99.4667969 96.5415039h-2.5791016c-.5527344 0-1 .4472656-1 1s.4472656 1 1 1h2.5791016c.5527344 0 1-.4472656 1-1S100.0195313 96.5415039 99.4667969 96.5415039z"
          fill="#000000"/>
    <path d="M34.5310059 19.1206055c0 3.0300293 2.4699707 5.5 5.5 5.5 3.0299683 0 5.5-2.4699707 5.5-5.5s-2.4700317-5.5-5.5-5.5C37.0009766 13.6206055 34.5310059 16.0905762 34.5310059 19.1206055zM43.5310059 19.1206055c0 1.9299316-1.5700073 3.5-3.5 3.5-1.9300537 0-3.5-1.5700684-3.5-3.5s1.5699463-3.5 3.5-3.5C41.9609985 15.6206055 43.5310059 17.1906738 43.5310059 19.1206055zM59.6409912 14.5705566c0-.5599365-.4500122-1-1-1h-9c-.5599976 0-1 .4400635-1 1v9c0 .5500488.4400024 1 1 1h9c.5499878 0 1-.4499512 1-1V14.5705566zM57.6409912 22.5705566h-7v-7h7V22.5705566zM68.2509766 24.6206055c3.0300293 0 5.5-2.4699707 5.5-5.5s-2.4699707-5.5-5.5-5.5c-3.039978 0-5.5 2.4699707-5.5 5.5S65.2109985 24.6206055 68.2509766 24.6206055zM68.2509766 15.6206055c1.9299927 0 3.5 1.5700684 3.5 3.5s-1.5700073 3.5-3.5 3.5-3.5-1.5700684-3.5-3.5S66.3209839 15.6206055 68.2509766 15.6206055zM87.8509521 14.5705566c0-.5599365-.4400024-1-1-1h-9c-.5499878 0-1 .4400635-1 1v9c0 .5500488.4500122 1 1 1h9c.5599976 0 1-.4499512 1-1V14.5705566zM85.8509521 22.5705566h-7v-7h7V22.5705566zM82.3509521 30.0106201c-3.0299683 0-5.5 2.4599609-5.5 5.5 0 3.0299072 2.4700317 5.5 5.5 5.5 3.0400391 0 5.5-2.4700928 5.5-5.5C87.8509521 32.4705811 85.3909912 30.0106201 82.3509521 30.0106201zM82.3509521 39.0106201c-1.9299927 0-3.5-1.5699463-3.5-3.5s1.5700073-3.5 3.5-3.5c1.9300537 0 3.5 1.5699463 3.5 3.5S84.2810059 39.0106201 82.3509521 39.0106201zM58.6409912 29.9505615h-9c-.5599976 0-1 .4500732-1 1v9c0 .5600586.4400024 1 1 1h9c.5499878 0 1-.4399414 1-1v-9C59.6409912 30.4006348 59.190979 29.9505615 58.6409912 29.9505615zM57.6409912 38.9505615h-7v-7h7V38.9505615zM68.2509766 41.0106201c3.0300293 0 5.5-2.4700928 5.5-5.5 0-3.0400391-2.4699707-5.5-5.5-5.5-3.039978 0-5.5 2.4599609-5.5 5.5C62.7509766 38.5405273 65.2109985 41.0106201 68.2509766 41.0106201zM68.2509766 32.0106201c1.9299927 0 3.5 1.5699463 3.5 3.5s-1.5700073 3.5-3.5 3.5-3.5-1.5699463-3.5-3.5S66.3209839 32.0106201 68.2509766 32.0106201zM68.2509766 57.3706055c3.0300293 0 5.5-2.4699707 5.5-5.5 0-3.0400391-2.4699707-5.5-5.5-5.5-3.039978 0-5.5 2.4599609-5.5 5.5C62.7509766 54.9006348 65.2109985 57.3706055 68.2509766 57.3706055zM68.2509766 48.3706055c1.9299927 0 3.5 1.5700684 3.5 3.5s-1.5700073 3.5-3.5 3.5-3.5-1.5700684-3.5-3.5S66.3209839 48.3706055 68.2509766 48.3706055zM46.9709473 84.7105713c0 3.0300293 2.460022 5.5 5.5 5.5 3.0300293 0 5.5-2.4699707 5.5-5.5 0-3.0299072-2.4699707-5.5-5.5-5.5C49.4309692 79.2105713 46.9709473 81.6806641 46.9709473 84.7105713zM55.9709473 84.7105713c0 1.9300537-1.5699463 3.5-3.5 3.5-1.9299927 0-3.5-1.5699463-3.5-3.5s1.5700073-3.5 3.5-3.5C54.401001 81.2105713 55.9709473 82.7805176 55.9709473 84.7105713zM65.6009521 90.2105713h9c.5599976 0 1-.4499512 1-1v-9c0-.5499268-.4400024-1-1-1h-9c-.5499878 0-1 .4500732-1 1v9C64.6009521 89.7606201 65.0509644 90.2105713 65.6009521 90.2105713zM66.6009521 81.2105713h7v7h-7V81.2105713zM83.3554688 84.7084961V57.3405762h3.4954834c.5599976 0 1-.4499512 1-1v-9c0-.5500488-.4400024-1-1-1h-9c-.5499878 0-1 .4499512-1 1v9c0 .5500488.4500122 1 1 1h3.5045166v26.3679199h-1.9423828l.6503677-.6503906c.3906479-.390625.3906479-1.0234375 0-1.4140625-.3906021-.390625-1.0234146-.390625-1.4140396 0l-2.3561401 2.3562012c-.3900223.38797-.3901825 1.0283737 0 1.4165039l2.3561401 2.3562012c.3906174.3906174 1.0234299.3906326 1.4140396 0 .3906479-.390625.3906479-1.0234375 0-1.4140625l-.6503677-.6503906h2.9423828C82.9082031 85.7084961 83.3554688 85.2612305 83.3554688 84.7084961zM78.8509521 48.3405762h7v7h-7V48.3405762zM38.2409668 70.9805908c3.8099976-.6099854 7.1600342-2.6600342 9.4299927-5.789917 2.2700195-3.1201172 3.1900024-6.9500732 2.5900269-10.7600098-.6099854-3.8100586-2.6600342-7.1601563-5.7900391-9.4300537-6.4588814-4.6992989-15.4928761-3.2767487-20.1899414 3.1999512-4.6966763 6.4552803-3.2769966 15.492691 3.1999512 20.1900635C30.4974651 70.5865784 34.2689743 71.5995636 38.2409668 70.9805908zM40.0310059 55.390625c-1.9300537 0-3.5-1.5700684-3.5-3.5 0-1.9300537 1.5699463-3.5 3.5-3.5 1.9299927 0 3.5 1.5699463 3.5 3.5C43.5310059 53.8205566 41.9609985 55.390625 40.0310059 55.390625zM30.8994141 68.0698242V50.628418c0-.5527344-.4472656-1-1-1s-1 .4472656-1 1v16.3012695c-.0794678-.0498047-.1589966-.0996094-.2384644-.1591797-2.6999512-1.9499512-4.4699707-4.8398438-4.9899902-8.1298828-.5199585-3.2800293.2700195-6.5700684 2.2300415-9.2600098 0-.0100098 0-.0100098 0-.0100098 1.9499512-2.6899414 4.8399658-4.4599609 8.1199951-4.9799805.6599731-.1000977 1.3200073-.1600342 1.9799805-.1600342 2.6099854 0 5.1400146.8199463 7.2999878 2.3900146 2.6900024 1.9499512 4.460022 4.8399658 4.9800415 8.1199951.5199585 3.289917-.2700195 6.5799561-2.2300415 9.2799072-1.3099365 1.8000488-3.0297852 3.1899414-5.0197144 4.0599365v-10.789917c2.5599365-.4702148 4.4997559-2.6999512 4.4997559-5.3999023 0-3.0300293-2.4700317-5.5-5.5-5.5-3.0300293 0-5.5 2.4699707-5.5 5.5 0 2.6999512 1.9399414 4.9299316 4.5 5.3999023.000061 0 .0001831 0 .0002441 0v11.4799805c-.000061 0-.0001831 0-.0002441 0-.3600464.0900879-.7300415.170166-1.1100464.2301025-2.4199829.3800049-4.8399658.0599365-7.0199585-.9300537C30.9004517 68.0703125 30.8999634 68.0700684 30.8994141 68.0698242z"
          fill="#000000"/>
</svg>