<svg xmlns="http://www.w3.org/2000/svg" viewBox="0 0 5000 5000" width="24"
     height="24">
    <path fill="#662906" d="M2823.648,3609.039h-283.28c-64.225,0-116.476-52.251-116.476-116.476V1507.386
			c0-64.225,52.251-116.476,116.476-116.476h283.28c14.844,0,26.879,12.033,26.879,26.879c0,14.844-12.035,26.879-26.879,26.879
			h-283.28c-34.583,0-62.718,28.135-62.718,62.718v1985.177c0,34.583,28.135,62.718,62.718,62.718h283.28
			c14.844,0,26.879,12.035,26.879,26.879C2850.527,3597.006,2838.492,3609.039,2823.648,3609.039z"
          class="color662906 svgShape"/>
    <path fill="#662906" d="M2823.648,2526.853h-956.972c-14.844,0-26.879-12.035-26.879-26.879
			c0-14.844,12.035-26.879,26.879-26.879h956.972c14.844,0,26.879,12.035,26.879,26.879
			C2850.527,2514.818,2838.492,2526.853,2823.648,2526.853z" class="color662906 svgShape"/>
    <path fill="#ffed91" d="M1705.214,3647.957h458.466c19.793,0,35.839-16.046,35.839-35.839v-103.701
				c0-19.793-16.046-35.839-35.839-35.839h-90.74c-19.793,0-35.839-16.046-35.839-35.839v-103.702
				c0-19.793,16.046-35.839,35.839-35.839h38.126c19.793,0,35.839-16.045,35.839-35.839v-103.703
				c0-19.793-16.046-35.839-35.839-35.839h-405.852V3647.957z" class="colorffed91 svgShape"/>
    <path fill="#ffc966" d="M2199.458,3508.33v103.754c0,19.89-15.951,35.839-35.839,35.839H1705.24v-104.828h353.728
				c19.711,0,35.839-15.948,35.839-35.839v-34.765h68.812C2183.507,3472.492,2199.458,3488.619,2199.458,3508.33z"
          class="colorffc966 svgShape"/>
    <path fill="#662906" d="M2163.68,3674.835h-458.467c-14.844,0-26.879-12.035-26.879-26.879s12.035-26.879,26.879-26.879
				h458.467c4.941,0,8.96-4.018,8.96-8.96v-103.701c0-4.941-4.018-8.96-8.96-8.96h-90.741c-34.583,0-62.718-28.135-62.718-62.718
				v-103.701c0-34.583,28.135-62.718,62.718-62.718h38.127c4.941,0,8.96-4.018,8.96-8.96v-103.704c0-4.941-4.018-8.959-8.96-8.959
				h-405.853c-14.844,0-26.879-12.035-26.879-26.879c0-14.844,12.035-26.879,26.879-26.879h405.853
				c34.583,0,62.718,28.135,62.718,62.718v103.704c0,34.583-28.135,62.718-62.718,62.718h-38.127c-4.941,0-8.96,4.018-8.96,8.959
				v103.701c0,4.941,4.018,8.96,8.96,8.96h90.741c34.583,0,62.718,28.135,62.718,62.718v103.701
				C2226.398,3646.7,2198.263,3674.835,2163.68,3674.835z" class="color662906 svgShape"/>
    <path fill="#ffed91" d="M1705.213,3429.113V2216.962c231.842-49.052,405.852-254.797,405.852-501.247
				c0-283-229.417-512.417-512.418-512.417c-283,0-512.417,229.417-512.417,512.417c0,246.45,174.012,452.195,405.853,501.247
				v1508.011c0,39.587,32.091,71.678,71.677,71.678h69.776c39.587,0,71.678-32.091,71.678-71.678v-141.067V3429.113z"
          class="colorffed91 svgShape"/>
    <path fill="#ffc966" d="M2111.112,1715.677c0,246.571-173.996,452.285-405.872,501.204v1508.094
				c0,39.586-32.091,71.677-71.677,71.677h-69.886c-39.424,0-71.677-32.074-71.677-71.677v-51.785h18.099
				c39.586,0,71.677-32.091,71.677-71.677V2204.472c0-62.147,38.392-116.64,95.494-141.169
				c182.546-78.415,310.38-259.746,310.38-471.092c0-109.844-34.583-211.627-93.539-295.132
				C2025.459,1389.902,2111.112,1542.755,2111.112,1715.677z" class="colorffc966 svgShape"/>
    <path fill="#662906" d="M1633.536,3823.529h-69.777c-54.344,0-98.557-44.212-98.557-98.556V2240.079
				c-236.452-60.307-405.853-277.374-405.853-524.365c0-297.369,241.927-539.296,539.296-539.296s539.298,241.927,539.298,539.296
				c0,245.982-169.401,462.31-405.852,522.576v1190.823c0,14.844-12.033,26.879-26.879,26.879s-26.879-12.035-26.879-26.879
				v-1212.15c0-12.7,8.89-23.668,21.314-26.297c222.818-47.144,384.538-246.89,384.538-474.951
				c0-267.728-217.813-485.538-485.54-485.538s-485.538,217.811-485.538,485.538c0,229.1,161.721,429.599,384.538,476.743
				c12.425,2.629,21.314,13.597,21.314,26.297v1506.219c0,24.702,20.096,44.798,44.798,44.798h69.777
				c24.703,0,44.798-20.096,44.798-44.798v-141.067c0-14.844,12.033-26.879,26.879-26.879s26.879,12.035,26.879,26.879v141.067
				C1732.093,3779.317,1687.88,3823.529,1633.536,3823.529z" class="color662906 svgShape"/>
    <circle cx="1598.647" cy="1715.715" r="299.673" fill="#ffffff" transform="rotate(-45.001 1598.635 1715.742)"
            class="colorfff svgShape"/>
    <path fill="#662906"
          d="M1598.647 2042.268c-180.062 0-326.552-146.492-326.552-326.554s146.49-326.552 326.552-326.552 326.554 146.49 326.554 326.552S1778.709 2042.268 1598.647 2042.268zM1598.647 1442.921c-150.418 0-272.794 122.375-272.794 272.794 0 150.42 122.375 272.796 272.794 272.796 150.42 0 272.796-122.375 272.796-272.796C1871.443 1565.296 1749.067 1442.921 1598.647 1442.921zM2072.939 3324.077h-237.145c-14.844 0-26.879-12.035-26.879-26.879 0-14.844 12.035-26.879 26.879-26.879h237.145c14.844 0 26.879 12.035 26.879 26.879C2099.818 3312.042 2087.783 3324.077 2072.939 3324.077zM2072.939 3499.456h-173.093c-14.844 0-26.879-12.035-26.879-26.879s12.035-26.879 26.879-26.879h173.093c14.844 0 26.879 12.035 26.879 26.879S2087.783 3499.456 2072.939 3499.456z"
          class="color662906 svgShape"/>
    <path fill="#ffffff"
          d="M1267.961 1517.912c-6.079 0-12.236-1.549-17.88-4.804-17.143-9.894-23.021-31.81-13.129-48.955 19.639-34.03 45.448-63.424 76.713-87.366 15.717-12.04 38.208-9.054 50.243 6.665 12.035 15.714 9.049 38.21-6.665 50.243-23.397 17.915-43.523 40.837-58.207 66.283C1292.399 1511.479 1280.348 1517.912 1267.961 1517.912zM1418.399 1391.429c-14.743 0-28.557-9.165-33.772-23.854-6.624-18.652 3.126-39.142 21.778-45.765 6.654-2.365 13.418-4.486 20.277-6.363 19.092-5.217 38.803 6.024 44.022 25.118 5.219 19.092-6.026 38.801-25.118 44.022-5.141 1.404-10.207 2.997-15.194 4.766C1426.429 1390.762 1422.377 1391.429 1418.399 1391.429zM3717.183 1417.789c0-21.417-2.219-42.288-6-62.607l85.923-69.636c-9.505-30.13-22.12-59.743-38.57-88.238-16.452-28.494-35.789-54.227-57.132-77.524l-103.323 39.617c-31.62-27.124-68.274-48.383-108.367-62.515l-17.36-109.344c-30.846-6.833-62.8-10.715-95.703-10.715-32.903 0-64.856 3.881-95.702 10.715l-17.36 109.344c-40.093 14.132-76.747 35.39-108.367 62.515l-103.323-39.617c-21.343 23.297-40.68 49.03-57.132 77.524-16.451 28.495-29.067 58.109-38.57 88.238l85.923 69.636c-3.78 20.319-5.998 41.192-5.998 62.607 0 21.415 2.218 42.288 6 62.607l-85.924 69.636c9.503 30.13 22.121 59.744 38.572 88.238 16.452 28.494 35.788 54.227 57.131 77.524l103.324-39.617c31.62 27.124 68.273 48.383 108.366 62.515l17.36 109.344c30.846 6.833 62.8 10.715 95.702 10.715 32.903 0 64.856-3.881 95.703-10.715l17.36-109.344c40.093-14.132 76.749-35.39 108.369-62.515l103.322 39.615c21.343-23.296 40.68-49.029 57.132-77.523 16.451-28.495 29.066-58.109 38.57-88.238l-85.923-69.636C3714.964 1460.076 3717.183 1439.204 3717.183 1417.789z"
          class="colorfff svgShape"/>
    <path fill="#ffffff" d="M3511.47,1357.127c0-75.807-62.566-137-138.877-134.759
				c-69.617,2.044-127.814,59.547-130.647,129.137c-2.434,59.793,34.153,111.25,86.316,131.345l-22.748,113.184
				c-1.791,8.913,5.025,17.235,14.116,17.235h114.041c9.092,0,15.907-8.322,14.116-17.235l-22.748-113.184
				C3475.561,1463.387,3511.47,1414.507,3511.47,1357.127z" class="colorfff svgShape"/>
    <path fill="#e8dfda" d="M3711.134,1480.393l86.014,69.709c-9.498,30.103-22.22,59.671-38.527,88.162
				c-16.487,28.493-35.839,54.296-57.164,77.592l-103.393-39.603c-31.538,27.058-68.272,48.384-108.411,62.361l-17.384,109.485
				c-30.821,6.812-62.718,10.574-95.689,10.574c-32.794,0-64.87-3.762-95.691-10.574l-17.381-109.485
				c-28.491-10.036-55.37-23.655-79.92-40.677c18.996,2.866,38.525,4.121,58.238,4.121c236.535,0,428.271-191.739,428.271-428.274
				c0-46.769-7.525-91.568-21.502-133.68l52.861-20.247c21.325,23.294,40.677,48.92,57.164,77.411
				c16.307,28.491,29.029,58.059,38.527,88.344l-86.014,69.525c3.762,20.431,6.094,41.215,6.094,62.718
				C3717.228,1439.18,3714.896,1460.147,3711.134,1480.393z" class="colore8dfda svgShape"/>
    <path fill="#662906" d="M3376.651,1885.629c-33.354,0-67.508-3.819-101.514-11.351
				c-10.78-2.386-19.004-11.123-20.735-22.027l-14.912-93.926c-32.175-12.932-62.077-30.178-89.227-51.461l-88.742,34.028
				c-10.309,3.948-21.986,1.201-29.44-6.941c-23.521-25.674-43.906-53.343-60.592-82.243
				c-16.684-28.896-30.453-60.384-40.929-93.589c-3.321-10.53,0.133-22.019,8.71-28.968l73.784-59.8
				c-2.533-17.541-3.813-34.826-3.813-51.562c0-16.738,1.28-34.021,3.813-51.564l-73.784-59.795
				c-8.577-6.952-12.031-18.44-8.71-28.97c10.473-33.201,24.243-64.689,40.927-93.589c16.683-28.896,37.068-56.565,60.592-82.243
				c7.455-8.139,19.127-10.898,29.443-6.941l88.74,34.025c27.148-21.279,57.05-38.527,89.229-51.461l14.912-93.924
				c1.73-10.902,9.953-19.639,20.732-22.027c68.003-15.067,135.03-15.067,203.032,0c10.78,2.389,19,11.123,20.732,22.027
				l14.914,93.924c32.177,12.934,62.081,30.182,89.227,51.461l88.742-34.028c10.309-3.944,21.988-1.197,29.443,6.943
				c23.519,25.674,43.904,53.343,60.59,82.241c16.681,28.892,30.451,60.38,40.927,93.593c3.321,10.528-0.133,22.016-8.71,28.966
				l-73.782,59.798c2.533,17.541,3.813,34.826,3.813,51.564c0,16.736-1.28,34.021-3.813,51.562l73.782,59.8
				c8.577,6.949,12.031,18.44,8.71,28.968c-10.478,33.209-24.248,64.697-40.927,93.589c-16.688,28.902-37.073,56.573-60.592,82.241
				c-7.455,8.139-19.127,10.896-29.44,6.941l-88.742-34.025c-27.144,21.279-57.052,38.529-89.227,51.461l-14.914,93.926
				c-1.732,10.904-9.955,19.641-20.735,22.027C3444.159,1881.81,3410.004,1885.629,3376.651,1885.629z M3304.564,1825.352
				c48.5,8.658,95.676,8.658,144.176,0l14.428-90.876c1.546-9.743,8.308-17.856,17.611-21.135
				c36.827-12.98,70.407-32.348,99.801-57.567c7.49-6.427,17.902-8.229,27.124-4.696l85.865,32.923
				c15.867-18.827,29.852-38.669,41.688-59.172c11.834-20.496,22.025-42.526,30.398-65.688l-71.395-57.864
				c-7.658-6.206-11.305-16.106-9.502-25.796c3.732-20.056,5.545-38.927,5.545-57.691c0-18.766-1.813-37.637-5.545-57.693
				c-1.802-9.69,1.844-19.591,9.502-25.796l71.395-57.864c-8.373-23.163-18.565-45.192-30.398-65.688
				c-11.836-20.498-25.818-40.343-41.688-59.172l-85.865,32.923c-9.222,3.535-19.63,1.73-27.122-4.696
				c-29.397-25.214-62.976-44.584-99.803-57.566c-9.305-3.279-16.064-11.392-17.611-21.135l-14.428-90.877
				c-48.495-8.658-95.68-8.658-144.176,0l-14.428,90.877c-1.546,9.743-8.306,17.856-17.611,21.135
				c-36.83,12.982-70.409,32.35-99.806,57.566c-7.494,6.429-17.906,8.227-27.122,4.696l-85.863-32.923
				c-15.872,18.834-29.856,38.676-41.69,59.172c-11.836,20.503-22.027,42.532-30.399,65.688l71.397,57.862
				c7.658,6.208,11.305,16.108,9.502,25.798c-3.732,20.057-5.545,38.927-5.545,57.693c0,18.764,1.813,37.635,5.545,57.691
				c1.802,9.69-1.844,19.591-9.502,25.799l-71.397,57.862c8.371,23.158,18.565,45.19,30.401,65.688
				c11.836,20.5,25.818,40.345,41.688,59.172l85.865-32.921c9.22-3.541,19.63-1.732,27.122,4.694
				c29.401,25.221,62.98,44.589,99.803,57.567c9.303,3.279,16.064,11.392,17.611,21.135L3304.564,1825.352z"
          class="color662906 svgShape"/>
    <path fill="#662906" d="M3433.672,1640.148h-114.041c-12.422,0-24.062-5.512-31.934-15.124
				c-7.87-9.609-10.981-22.106-8.533-34.286l18.604-92.574c-52.656-29.412-85.183-86.224-82.678-147.754
				c3.377-82.978,73.679-152.472,156.714-154.911c44.136-1.28,85.863,14.905,117.487,45.616
				c31.637,30.72,49.06,71.923,49.06,116.012c0,58.581-32.507,112.707-82.823,140.999l18.613,92.611
				c2.448,12.18-0.663,24.676-8.533,34.286C3457.734,1634.635,3446.095,1640.148,3433.672,1640.148z M3421.436,1601.33h0.179
				H3421.436z M3334.871,1586.39h83.562l-19.744-98.244c-2.581-12.84,4.469-25.669,16.688-30.377
				c42.047-16.2,69.215-55.703,69.215-100.641c0-29.432-11.631-56.937-32.752-77.446c-21.111-20.503-49.079-31.324-78.456-30.447
				c-55.412,1.627-102.325,47.996-104.579,103.362c-1.883,46.253,25.895,88.516,69.121,105.169
				c12.221,4.71,19.271,17.539,16.69,30.379L3334.871,1586.39z" class="color662906 svgShape"/>
    <path fill="#ffffff"
          d="M3157.729 1324.179c-6.079 0-12.236-1.549-17.88-4.804-17.143-9.894-23.021-31.81-13.129-48.955 19.639-34.03 45.448-63.424 76.713-87.366 15.717-12.037 38.21-9.052 50.243 6.665 12.035 15.714 9.05 38.21-6.665 50.243-23.397 17.915-43.523 40.837-58.207 66.283C3182.167 1317.745 3170.116 1324.179 3157.729 1324.179zM3308.167 1197.695c-14.743 0-28.557-9.165-33.772-23.854-6.623-18.652 3.126-39.142 21.778-45.765 6.654-2.365 13.416-4.486 20.271-6.361 19.09-5.221 38.802 6.02 44.026 25.112 5.221 19.092-6.022 38.803-25.114 44.024-5.14 1.406-10.209 2.999-15.196 4.769C3316.197 1197.028 3312.146 1197.695 3308.167 1197.695z"
          class="colorfff svgShape"/>
    <g fill="#000000" class="color000 svgShape">
        <path fill="#ff9a91" d="M3717.183,2499.974c0-21.417-2.219-42.288-6-62.607l85.923-69.636
				c-9.505-30.131-22.12-59.744-38.57-88.238c-16.452-28.494-35.789-54.227-57.132-77.524l-103.323,39.617
				c-31.62-27.124-68.274-48.383-108.367-62.514l-17.36-109.344c-30.846-6.833-62.8-10.715-95.703-10.715
				c-32.903,0-64.856,3.881-95.702,10.715l-17.36,109.344c-40.093,14.132-76.747,35.39-108.367,62.514l-103.323-39.617
				c-21.343,23.297-40.68,49.03-57.132,77.524c-16.451,28.496-29.067,58.109-38.57,88.238l85.923,69.636
				c-3.78,20.319-5.998,41.192-5.998,62.607s2.218,42.288,6,62.607l-85.924,69.636c9.503,30.13,22.121,59.743,38.572,88.238
				c16.452,28.494,35.788,54.227,57.131,77.524l103.324-39.617c31.62,27.124,68.273,48.383,108.366,62.515l17.36,109.344
				c30.846,6.833,62.8,10.715,95.702,10.715c32.903,0,64.856-3.882,95.703-10.715l17.36-109.344
				c40.093-14.132,76.749-35.39,108.369-62.515l103.322,39.615c21.343-23.296,40.68-49.029,57.132-77.523
				c16.451-28.496,29.066-58.109,38.57-88.238l-85.923-69.636C3714.964,2542.262,3717.183,2521.39,3717.183,2499.974z"
              class="colorff9a91 svgShape"/>
        <path fill="#ffffff" d="M3511.47,2439.313c0-75.807-62.566-137-138.877-134.759
				c-69.617,2.044-127.814,59.547-130.647,129.136c-2.434,59.793,34.153,111.25,86.316,131.345l-22.748,113.184
				c-1.791,8.913,5.025,17.236,14.116,17.236h114.041c9.092,0,15.907-8.322,14.116-17.236l-22.748-113.184
				C3475.561,2545.573,3511.47,2496.693,3511.47,2439.313z" class="colorfff svgShape"/>
        <path fill="#ff7569" d="M3711.134,2571.138l86.014,69.709c-9.498,30.103-22.22,59.671-38.527,88.162
				c-16.487,28.493-35.839,54.296-57.164,77.592l-103.393-39.603c-31.538,27.058-68.272,48.384-108.411,62.361l-17.384,109.485
				c-30.821,6.812-62.718,10.574-95.689,10.574c-32.794,0-64.87-3.762-95.691-10.574l-17.381-109.485
				c-28.491-10.036-55.37-23.655-79.92-40.677c18.996,2.866,38.525,4.121,58.238,4.121c236.535,0,428.271-191.739,428.271-428.273
				c0-46.769-7.525-91.568-21.502-133.68l52.861-20.247c21.325,23.294,40.677,48.919,57.164,77.411
				c16.307,28.491,29.029,58.059,38.527,88.344l-86.014,69.525c3.762,20.43,6.094,41.215,6.094,62.718
				C3717.228,2529.925,3714.896,2550.892,3711.134,2571.138z" class="colorff7569 svgShape"/>
        <path fill="#662906" d="M3376.651,2967.816c-33.358,0-67.515-3.819-101.516-11.353
				c-10.78-2.389-19.002-11.125-20.732-22.027l-14.912-93.924c-32.175-12.934-62.081-30.182-89.227-51.461l-88.742,34.028
				c-10.301,3.95-21.986,1.197-29.443-6.943c-23.519-25.674-43.904-53.343-60.589-82.24c-16.684-28.896-30.453-60.386-40.929-93.594
				c-3.321-10.528,0.133-22.016,8.71-28.968l73.784-59.795c-2.533-17.543-3.813-34.826-3.813-51.564
				c0-16.736,1.28-34.021,3.813-51.562l-73.784-59.8c-8.577-6.949-12.031-18.438-8.71-28.968
				c10.473-33.199,24.243-64.687,40.927-93.587c16.683-28.898,37.07-56.569,60.594-82.245c7.453-8.137,19.133-10.893,29.44-6.938
				l88.74,34.023c27.15-21.281,57.052-38.527,89.229-51.459l14.912-93.926c1.73-10.902,9.953-19.639,20.732-22.027
				c67.99-15.063,135.043-15.063,203.032,0c10.78,2.389,19.002,11.123,20.732,22.027l14.914,93.926
				c32.175,12.932,62.079,30.178,89.227,51.461l88.742-34.028c10.309-3.946,21.988-1.199,29.44,6.941
				c23.521,25.674,43.906,53.343,60.592,82.243c16.679,28.889,30.449,60.377,40.927,93.589c3.321,10.53-0.133,22.019-8.71,28.968
				l-73.782,59.8c2.533,17.541,3.813,34.826,3.813,51.562c0,16.738-1.28,34.023-3.813,51.564l73.782,59.798
				c8.577,6.949,12.031,18.438,8.71,28.968c-10.478,33.209-24.245,64.698-40.927,93.591c-16.688,28.9-37.073,56.569-60.592,82.24
				c-7.455,8.137-19.127,10.893-29.44,6.941l-88.742-34.025c-27.144,21.279-57.046,38.525-89.227,51.461l-14.914,93.924
				c-1.732,10.904-9.953,19.639-20.732,22.027C3444.166,2963.996,3410.009,2967.816,3376.651,2967.816z M3304.564,2907.539
				c48.495,8.658,95.68,8.658,144.176,0l14.428-90.877c1.546-9.743,8.306-17.856,17.611-21.135
				c36.832-12.985,70.411-32.352,99.801-57.566c7.49-6.427,17.902-8.231,27.124-4.697l85.865,32.921
				c15.867-18.827,29.852-38.669,41.688-59.17c11.834-20.498,22.025-42.528,30.398-65.688l-71.395-57.864
				c-7.658-6.206-11.305-16.106-9.502-25.796c3.732-20.056,5.545-38.927,5.545-57.693c0-18.764-1.813-37.635-5.545-57.691
				c-1.802-9.69,1.844-19.591,9.502-25.796l71.395-57.864c-8.373-23.163-18.565-45.192-30.398-65.688
				c-11.836-20.5-25.818-40.345-41.688-59.172l-85.865,32.921c-9.222,3.541-19.63,1.73-27.122-4.694
				c-29.401-25.219-62.978-44.586-99.803-57.566c-9.303-3.279-16.064-11.392-17.611-21.135l-14.428-90.879
				c-48.487-8.653-95.693-8.653-144.176,0l-14.428,90.879c-1.546,9.743-8.308,17.856-17.611,21.135
				c-36.825,12.98-70.405,32.348-99.806,57.566c-7.492,6.427-17.908,8.231-27.122,4.694l-85.863-32.921
				c-15.872,18.832-29.856,38.672-41.69,59.172c-11.836,20.503-22.027,42.532-30.399,65.688l71.397,57.862
				c7.658,6.208,11.305,16.108,9.502,25.799c-3.732,20.056-5.545,38.927-5.545,57.691c0,18.766,1.813,37.637,5.545,57.693
				c1.802,9.69-1.844,19.591-9.502,25.799l-71.397,57.862c8.371,23.158,18.565,45.19,30.401,65.688
				c11.836,20.498,25.818,40.343,41.688,59.172l85.865-32.923c9.22-3.535,19.63-1.73,27.122,4.697
				c29.399,25.217,62.976,44.584,99.803,57.566c9.305,3.279,16.064,11.392,17.611,21.135L3304.564,2907.539z"
              class="color662906 svgShape"/>
        <path fill="#662906" d="M3433.672,2722.334h-114.041c-12.422,0-24.062-5.512-31.932-15.124
				c-7.873-9.611-10.983-22.108-8.535-34.288l18.604-92.572c-52.656-29.412-85.183-86.224-82.678-147.754
				c3.377-82.978,73.679-152.472,156.714-154.911c44.136-1.273,85.863,14.905,117.489,45.616
				c31.635,30.72,49.057,71.92,49.057,116.01c0,58.584-32.507,112.709-82.823,141.001l18.613,92.609
				c2.448,12.18-0.663,24.677-8.535,34.288C3457.734,2716.822,3446.095,2722.334,3433.672,2722.334z M3421.436,2683.514h0.179
				H3421.436z M3334.871,2668.576h83.562l-19.744-98.244c-2.581-12.84,4.469-25.669,16.688-30.377
				c42.047-16.2,69.215-55.705,69.215-100.644c0-29.432-11.631-56.934-32.752-77.443c-21.111-20.503-49.079-31.339-78.456-30.447
				c-55.412,1.627-102.325,47.996-104.579,103.362c-1.883,46.253,25.895,88.516,69.121,105.169
				c12.221,4.709,19.271,17.539,16.69,30.379L3334.871,2668.576z" class="color662906 svgShape"/>
        <path fill="#ffffff"
              d="M3157.729 2406.365c-6.079 0-12.236-1.549-17.878-4.804-17.145-9.892-23.023-31.81-13.131-48.952 19.634-34.028 45.444-63.422 76.711-87.37 15.715-12.037 38.21-9.052 50.245 6.663 12.033 15.715 9.052 38.21-6.663 50.245-23.734 18.175-43.318 40.476-58.209 66.283C3182.167 2399.934 3170.116 2406.365 3157.729 2406.365zM3308.167 2279.879c-14.748 0-28.563-9.172-33.776-23.865-6.617-18.654 3.139-39.142 21.793-45.759 6.654-2.36 13.416-4.487 20.273-6.359 19.081-5.224 38.798 6.035 44.015 25.129 5.215 19.094-6.035 38.801-25.129 44.015-5.138 1.405-10.207 2.997-15.194 4.767C3316.188 2279.215 3312.144 2279.879 3308.167 2279.879z"
              class="colorfff svgShape"/>
    </g>
    <g fill="#000000" class="color000 svgShape">
        <path fill="#a8ebff" d="M3717.183,3582.16c0-21.417-2.219-42.288-6-62.607l85.923-69.636
				c-9.505-30.13-22.12-59.743-38.57-88.238c-16.452-28.494-35.789-54.227-57.132-77.524l-103.323,39.617
				c-31.62-27.124-68.274-48.383-108.367-62.515l-17.36-109.344c-30.846-6.833-62.8-10.715-95.703-10.715
				c-32.903,0-64.856,3.881-95.702,10.715l-17.36,109.344c-40.093,14.132-76.747,35.39-108.367,62.515l-103.323-39.617
				c-21.343,23.297-40.68,49.03-57.132,77.524c-16.451,28.495-29.067,58.108-38.57,88.238l85.923,69.636
				c-3.78,20.319-5.998,41.192-5.998,62.607c0,21.415,2.218,42.288,6,62.607l-85.924,69.636
				c9.503,30.131,22.121,59.744,38.572,88.238c16.452,28.494,35.788,54.227,57.131,77.524l103.324-39.616
				c31.62,27.124,68.273,48.383,108.366,62.514l17.36,109.344c30.846,6.833,62.8,10.715,95.702,10.715
				c32.903,0,64.856-3.881,95.703-10.715l17.36-109.344c40.093-14.132,76.749-35.39,108.369-62.514l103.322,39.615
				c21.343-23.295,40.68-49.029,57.132-77.523c16.451-28.495,29.066-58.108,38.57-88.238l-85.923-69.636
				C3714.964,3624.448,3717.183,3603.576,3717.183,3582.16z" class="colora8ebff svgShape"/>
        <path fill="#84d5f0" d="M3711.134,3643.964l86.014,69.709c-9.498,30.103-22.22,59.671-38.527,88.162
				c-16.487,28.493-35.839,54.296-57.164,77.592l-103.393-39.603c-31.538,27.058-68.272,48.384-108.411,62.361l-17.384,109.485
				c-30.821,6.812-62.718,10.574-95.689,10.574c-32.794,0-64.87-3.762-95.691-10.574l-17.381-109.485
				c-28.491-10.036-55.37-23.655-79.92-40.677c18.996,2.866,38.525,4.121,58.238,4.121c236.535,0,428.271-191.739,428.271-428.273
				c0-46.769-7.525-91.568-21.502-133.68l52.861-20.247c21.325,23.294,40.677,48.92,57.164,77.411
				c16.307,28.491,29.029,58.059,38.527,88.344l-86.014,69.525c3.762,20.43,6.094,41.215,6.094,62.718
				C3717.228,3602.751,3714.896,3623.717,3711.134,3643.964z" class="color84d5f0 svgShape"/>
        <path fill="#662906" d="M3376.651,4050c-33.365,0-67.521-3.819-101.516-11.351c-10.78-2.389-19.002-11.125-20.732-22.027
				l-14.912-93.926c-32.175-12.932-62.081-30.18-89.227-51.459l-88.742,34.025c-10.309,3.948-21.986,1.199-29.44-6.941
				c-23.519-25.672-43.904-53.34-60.592-82.24c-16.684-28.898-30.453-60.386-40.929-93.591c-3.321-10.53,0.133-22.019,8.71-28.968
				l73.784-59.8c-2.533-17.541-3.813-34.826-3.813-51.562c0-16.736,1.28-34.021,3.813-51.562l-73.784-59.8
				c-8.577-6.949-12.031-18.438-8.71-28.968c10.473-33.201,24.243-64.689,40.927-93.589c16.683-28.898,37.07-56.567,60.594-82.243
				c7.453-8.137,19.133-10.893,29.44-6.938l88.74,34.023c27.144-21.279,57.052-38.527,89.229-51.459l14.912-93.926
				c1.73-10.902,9.953-19.639,20.732-22.027c67.99-15.063,135.043-15.063,203.032,0c10.78,2.389,19.002,11.123,20.732,22.027
				l14.914,93.926c32.175,12.932,62.083,30.182,89.227,51.459l88.742-34.025c10.309-3.946,21.988-1.199,29.44,6.941
				c23.519,25.672,43.904,53.34,60.592,82.24c16.681,28.894,30.449,60.382,40.927,93.591c3.321,10.53-0.133,22.019-8.71,28.968
				l-73.782,59.8c2.533,17.541,3.813,34.826,3.813,51.562c0,16.736-1.28,34.021-3.813,51.562l73.782,59.8
				c8.577,6.949,12.031,18.438,8.71,28.968c-10.478,33.209-24.245,64.698-40.927,93.591c-16.688,28.9-37.073,56.569-60.592,82.24
				c-7.459,8.135-19.131,10.893-29.44,6.941l-88.742-34.025c-27.144,21.279-57.046,38.525-89.227,51.459l-14.914,93.926
				c-1.73,10.904-9.953,19.639-20.732,22.027C3444.172,4046.181,3410.015,4050,3376.651,4050z M3304.564,3989.726
				c48.482,8.653,95.689,8.653,144.176,0l14.428-90.879c1.546-9.743,8.308-17.856,17.611-21.135
				c36.832-12.982,70.409-32.35,99.801-57.564c7.49-6.427,17.902-8.236,27.124-4.697l85.865,32.921
				c15.867-18.827,29.852-38.669,41.688-59.17c11.834-20.498,22.025-42.528,30.398-65.69l-71.395-57.864
				c-7.658-6.206-11.305-16.106-9.502-25.796c3.732-20.056,5.545-38.927,5.545-57.691c0-18.764-1.813-37.635-5.545-57.691
				c-1.802-9.69,1.844-19.591,9.502-25.796l71.395-57.864c-8.373-23.163-18.565-45.192-30.398-65.69
				c-11.836-20.5-25.821-40.343-41.688-59.17l-85.865,32.921c-9.222,3.539-19.634,1.732-27.124-4.694
				c-29.395-25.217-62.974-44.586-99.801-57.566c-9.303-3.279-16.064-11.392-17.611-21.135l-14.428-90.879
				c-48.487-8.653-95.693-8.653-144.176,0l-14.428,90.879c-1.546,9.743-8.308,17.856-17.611,21.135
				c-36.83,12.98-70.409,32.348-99.803,57.566c-7.494,6.422-17.911,8.229-27.124,4.694l-85.863-32.921
				c-15.872,18.832-29.856,38.672-41.69,59.17c-11.836,20.503-22.027,42.532-30.399,65.69l71.397,57.862
				c7.658,6.208,11.305,16.108,9.502,25.799c-3.732,20.056-5.545,38.927-5.545,57.691c0,18.764,1.813,37.635,5.545,57.691
				c1.802,9.69-1.844,19.591-9.502,25.799l-71.397,57.862c8.371,23.158,18.565,45.19,30.401,65.69
				c11.836,20.5,25.82,40.343,41.688,59.17l85.865-32.921c9.22-3.539,19.63-1.73,27.124,4.694
				c29.397,25.219,62.974,44.586,99.801,57.566c9.303,3.279,16.064,11.392,17.611,21.135L3304.564,3989.726z"
              class="color662906 svgShape"/>
        <path fill="#ffffff" d="M3511.47,3521.499c0-75.807-62.566-137-138.877-134.76
				c-69.617,2.044-127.814,59.547-130.647,129.137c-2.434,59.793,34.153,111.25,86.316,131.345l-22.748,113.184
				c-1.791,8.913,5.025,17.235,14.116,17.235h114.041c9.092,0,15.907-8.322,14.116-17.235l-22.748-113.184
				C3475.561,3627.759,3511.47,3578.879,3511.47,3521.499z" class="colorfff svgShape"/>
        <path fill="#662906" d="M3433.672,3804.521h-114.041c-12.422,0-24.062-5.512-31.932-15.124
				c-7.873-9.609-10.983-22.108-8.535-34.288l18.604-92.572c-52.658-29.412-85.183-86.224-82.678-147.754
				c3.377-82.98,73.679-152.474,156.716-154.911c44.116-1.273,85.859,14.903,117.484,45.612
				c31.637,30.722,49.06,71.923,49.06,116.014c0,58.584-32.505,112.709-82.823,141.001l18.613,92.609
				c2.448,12.18-0.663,24.679-8.535,34.288C3457.734,3799.008,3446.095,3804.521,3433.672,3804.521z M3421.436,3765.7h0.179
				H3421.436z M3334.871,3750.762h83.562l-19.744-98.246c-2.581-12.84,4.469-25.669,16.69-30.379
				c42.045-16.196,69.212-55.698,69.212-100.639c0-29.434-11.633-56.936-32.752-77.446c-21.111-20.501-49.022-31.35-78.456-30.445
				c-55.412,1.625-102.325,47.994-104.579,103.362c-1.883,46.253,25.895,88.516,69.121,105.167
				c12.221,4.709,19.271,17.539,16.69,30.379L3334.871,3750.762z" class="color662906 svgShape"/>
        <path fill="#ffffff"
              d="M3157.729 3488.552c-6.079 0-12.236-1.549-17.878-4.804-17.145-9.892-23.023-31.81-13.131-48.952 19.636-34.032 45.446-63.429 76.713-87.37 15.717-12.037 38.21-9.052 50.243 6.665 12.035 15.715 9.05 38.21-6.665 50.243-23.731 18.173-43.313 40.474-58.207 66.283C3182.167 3482.121 3170.116 3488.552 3157.729 3488.552zM3308.167 3362.066c-14.743 0-28.557-9.166-33.772-23.854-6.623-18.652 3.126-39.142 21.778-45.765 6.654-2.365 13.416-4.486 20.271-6.361 19.09-5.219 38.802 6.02 44.026 25.112 5.221 19.092-6.022 38.803-25.114 44.024-5.14 1.406-10.209 2.999-15.196 4.769C3316.197 3361.399 3312.146 3362.066 3308.167 3362.066z"
        />
    </g>
</svg>