<svg xmlns="http://www.w3.org/2000/svg" viewBox="0 0 67 67" width="24" height="24">
    <path d="M7.1953125,27.7609234c-3.1650391,0-5.7402344,2.5751953-5.7402344,5.7402325
		c0,3.159668,2.5751953,5.7299805,5.7402344,5.7299805c1.2839355,0,2.4851685-0.432373,3.477417-1.1920166l8.6168213,8.6168213
		l-9.1640625,9.1640625H3.2563477c-0.4140625,0-0.75,0.3359375-0.75,0.75v7.1630859c0,0.4140663,0.3359375,0.7500038,0.75,0.7500038
		h7.1630859c0.4140625,0,0.75-0.3359375,0.75-0.7500038v-6.8359375l9.1806641-9.1806641l8.617981,8.6179199
		c-0.7667236,1.0019531-1.2029419,2.2000732-1.2029419,3.4665527c0,3.1650391,2.574707,5.7402382,5.7397461,5.7402382
		c3.159668,0,5.7304688-2.5751991,5.7304688-5.7402382c0-1.2709961-0.4360352-2.4719238-1.2036133-3.4758301l9.1356201-9.1309814
		l9.7003174,9.7005615v6.8383789c0,0.4140663,0.3359375,0.7500038,0.75,0.7500038H64.78125
		c0.4140625,0,0.75-0.3359375,0.75-0.7500038v-7.1630859c0-0.4140625-0.3359375-0.75-0.75-0.75h-6.8671875l-9.6859131-9.6861572
		l8.098999-8.0948486c0.9923706,0.7597656,2.1939697,1.1921387,3.4780273,1.1921387
		c3.1650391,0,5.7397461-2.5703125,5.7397461-5.7299805c0-3.1650372-2.574707-5.7402325-5.7397461-5.7402325
		c-1.2737427,0-2.510437,0.4333496-3.494873,1.1950684l-8.6047363-8.6047363l10.2294922-10.2294922H64.78125
		c0.4140625,0,0.75-0.3359375,0.75-0.75V2.2086771c0-0.4140625-0.3359375-0.75-0.75-0.75h-7.1635742
		c-0.4140625,0-0.75,0.3359375-0.75,0.75v6.859375L46.6450195,19.2907085l-8.6132813-8.6132813
		c0.7670288-1.0030518,1.2036133-2.2045898,1.2036133-3.476563c0-3.1650391-2.5708008-5.7397461-5.7304688-5.7397461
		c-3.1650391,0-5.7397461,2.5747068-5.7397461,5.7397461c0,1.2690434,0.4386597,2.4689946,1.2078247,3.4716802l-8.1051025,8.1008301
		l-9.6984253-9.6984863V2.2086771c0-0.4140625-0.3359375-0.75-0.75-0.75H3.2563477c-0.4140625,0-0.75,0.3359375-0.75,0.75v7.1630859
		c0,0.4140625,0.3359375,0.75,0.75,0.75h6.8388672l9.711792,9.711792l-9.133667,9.1287842
		C9.6769409,28.1967144,8.4752808,27.7609234,7.1953125,27.7609234z M9.6694336,62.9830894H4.0063477v-5.6630859h5.6630859
		V62.9830894z M58.3676758,57.3200035H64.03125v5.6630859h-5.6635742V57.3200035z M58.3676758,2.9586771H64.03125v5.6630859
		h-5.6635742V2.9586771z M9.6694336,8.6217632H4.0063477V2.9586771h5.6630859V8.6217632z M33.5048828,64.0411987
		c-2.3378906,0-4.2397461-1.9023476-4.2397461-4.2402382c0-2.2772217,1.8521729-4.2397461,4.2397461-4.2397461
		c2.369873,0,4.2304688,1.9348145,4.2304688,4.2397461C37.7353516,62.1388512,35.8374023,64.0411987,33.5048828,64.0411987z
		 M36.9907227,55.2448082c-0.3812256-0.2158203-1.0776978-0.8305664-2.4425049-1.081543
		c-0.0020752-0.0003662-0.0040283-0.0009766-0.0061646-0.0014648l4.8783569-4.8779297
		c0.2929688-0.2929688,0.2929688-0.7675781,0-1.0605469s-0.7675781-0.2929688-1.0605469,0l-4.8613281,4.8608398
		l-5.0117188-5.0117188c-0.2929688-0.2929688-0.7675781-0.2929688-1.0605469,0s-0.2929688,0.7675781,0,1.0605469
		l5.0290527,5.0290527c-0.909668,0.1694336-1.7989502,0.5865479-2.4489746,1.0895996l-8.5957031-8.5957031l8.2348633-8.2348633
		h8.7490234l7.7121582,7.7124023L36.9907227,55.2448082z M30.0849609,36.9210777v-8.3300762h8.3203125v8.3300762H30.0849609z
		 M59.8051758,29.2609234c2.3378906,0,4.2397461,1.9023438,4.2397461,4.2402325
		c0,2.3325195-1.9018555,4.2299805-4.2397461,4.2299805c-2.4561768,0-4.2402344-1.9931641-4.2402344-4.2299805
		C55.5649414,31.1686382,57.4633789,29.2609234,59.8051758,29.2609234z M55.2485352,30.0153179
		c-0.5324097,0.6914063-0.9416504,1.6833496-1.0814209,2.4420147c-0.0003662,0.0020752-0.0010986,0.0039063-0.0014648,0.0058594
		l-4.4776611-4.4776592c-0.2929688-0.2929688-0.7675781-0.2929688-1.0605469,0s-0.2929688,0.7675781,0,1.0605469
		l4.4545898,4.4545879l-4.4541016,4.4541016c-0.2929688,0.2929688-0.2929688,0.7675781,0,1.0605469s0.7675781,0.2929688,1.0605469,0
		l4.4758301-4.4758301c0.138855,0.7595215,0.5601807,1.7695313,1.0881348,2.4528809l-8.0848999,8.0808105l-7.2857666-7.2858887
		c0.0064087-0.0394287,0.0234985-0.0749512,0.0234985-0.1162109v-9.5195293l6.7397461-6.7397461L55.2485352,30.0153179z
		 M33.5048828,2.9611185c2.3325195,0,4.2304688,1.9018552,4.2304688,4.2397461c0,2.3146977-1.8682251,4.2402349-4.2304688,4.2402349
		c-2.3509521,0-4.2397461-1.9265137-4.2397461-4.2402349C29.2651367,4.8629737,31.1669922,2.9611185,33.5048828,2.9611185z
		 M30.0092773,11.7575054c0.5601807,0.4317627,1.6150513,0.9289551,2.4465332,1.0812988l-3.9128418,3.9128418
		c-0.2929688,0.2929688-0.2929688,0.7675781,0,1.0605469s0.7675781,0.2929688,1.0605469,0l3.8950195-3.8950195l4.109375,4.109375
		c0.2929688,0.2929688,0.7675781,0.2929688,1.0605469,0s0.2929688-0.7675781,0-1.0605469l-4.1264648-4.1264648
		c0.7357178-0.1343994,1.8378296-0.6101074,2.4487305-1.0820313l8.59375,8.59375l-6.7397461,6.7397461h-9.5097656
		c-0.0440674,0-0.0823364,0.0178223-0.1243286,0.0251465l-7.2821045-7.2822266L30.0092773,11.7575054z M18.3696289,37.9547691
		l-4.4545898-4.4541016l5.875-5.8749981c0.2929688-0.2929688,0.2929688-0.7675781,0-1.0605469s-0.7675781-0.2929688-1.0605469,0
		l-5.8949585,5.8950176c-0.0426636-0.1038818-0.2235107-1.3382549-1.0830688-2.4545879l9.1162109-9.1113281l7.7172852,7.7172852
		v8.7490215l-8.2348633,8.2348633l-8.5986328-8.5986328c0.7532959-0.9779053,0.9638672-2.0806885,1.083252-2.4553223
		l4.4743652,4.473877c0.2929688,0.2929688,0.7675781,0.2929688,1.0605469,0S18.6625977,38.2477379,18.3696289,37.9547691z
		 M7.1953125,37.7311363c-2.3378906,0-4.2402344-1.8974609-4.2402344-4.2299805
		c0-2.3378887,1.9023438-4.2402325,4.2402344-4.2402325c2.3522339,0,4.2397461,1.8977051,4.2397461,4.2402325
		C11.4350586,35.7882652,9.6121826,37.7311363,7.1953125,37.7311363z" fill="#000000"
    />
</svg>
