<svg xmlns="http://www.w3.org/2000/svg" viewBox="0 0 64 64" width="24" height="24">
    <path d="m23.707 3.293-1.414 1.414L24.586 7H16V4a1 1 0 0 0-1-1H3a1 1 0 0 0-1 1v8a1 1 0 0 0 1 1h12a1 1 0 0 0 1-1V9h8.586l-2.293 2.293 1.414 1.414 4-4a.997.997 0 0 0 0-1.414l-4-4zM14 11H4V5h10v6z"
          fill="#000000" class="color000 svgShape"/>
    <path d="M61 3H29a1 1 0 0 0-1 1v8a1 1 0 0 0 1 1h28c2.757 0 5-2.243 5-5V4a1 1 0 0 0-1-1zm-1 5c0 1.654-1.346 3-3 3H30V5h30v3zM23.707 19.293l-1.414 1.414L24.586 23H16v-3a1 1 0 0 0-1-1H3a1 1 0 0 0-1 1v8a1 1 0 0 0 1 1h12a1 1 0 0 0 1-1v-3h8.586l-2.293 2.293 1.414 1.414 4-4a.997.997 0 0 0 0-1.414l-4-4zM14 27H4v-6h10v6z"
          fill="#000000" class="color000 svgShape"/>
    <path d="M61 19H29a1 1 0 0 0-1 1v8a1 1 0 0 0 1 1h28c2.757 0 5-2.243 5-5v-4a1 1 0 0 0-1-1zm-1 5c0 1.654-1.346 3-3 3H30v-6h30v3zM23.707 35.293l-1.414 1.414L24.586 39H16v-3a1 1 0 0 0-1-1H3a1 1 0 0 0-1 1v8a1 1 0 0 0 1 1h12a1 1 0 0 0 1-1v-3h8.586l-2.293 2.293 1.414 1.414 4-4a.997.997 0 0 0 0-1.414l-4-4zM14 43H4v-6h10v6z"
          fill="#000000" class="color000 svgShape"/>
    <path d="M61 35H29a1 1 0 0 0-1 1v8a1 1 0 0 0 1 1h28c2.757 0 5-2.243 5-5v-4a1 1 0 0 0-1-1zm-1 5c0 1.654-1.346 3-3 3H30v-6h30v3zM23.707 51.293l-1.414 1.414L24.586 55H16v-3a1 1 0 0 0-1-1H3a1 1 0 0 0-1 1v8a1 1 0 0 0 1 1h12a1 1 0 0 0 1-1v-3h8.586l-2.293 2.293 1.414 1.414 4-4a.997.997 0 0 0 0-1.414l-4-4zM14 59H4v-6h10v6z"
          fill="#000000" class="color000 svgShape"/>
    <path d="M61 51H29a1 1 0 0 0-1 1v8a1 1 0 0 0 1 1h28c2.757 0 5-2.243 5-5v-4a1 1 0 0 0-1-1zm-1 5c0 1.654-1.346 3-3 3H30v-6h30v3z"
          fill="#000000" class="color000 svgShape"/>
</svg>