<svg xmlns="http://www.w3.org/2000/svg" viewBox="0 0 100 100" width="24"
     height="24">
    <path d="M90.025,74.016h-6.941c0.172-0.493,0.271-1.019,0.271-1.57v-3.265c0-2.631-2.141-4.772-4.773-4.772H77.48c0.173-0.493,0.271-1.019,0.271-1.57v-3.265c0-2.202-1.503-4.056-3.535-4.603c0.212-0.539,0.333-1.125,0.333-1.738v-3.264c0-2.422-1.816-4.424-4.157-4.728c0.183-0.505,0.287-1.047,0.287-1.614v-3.264c0-2.631-2.141-4.772-4.772-4.772h-0.435c0.172-0.492,0.271-1.019,0.271-1.569v-3.265c0-2.631-2.141-4.772-4.772-4.772h-0.435c0.173-0.492,0.271-1.019,0.271-1.57V21.15c0-2.631-2.14-4.772-4.772-4.772h-9.668c-2.631,0-4.772,2.141-4.772,4.772v3.265c0,0.551,0.098,1.077,0.271,1.57h-1.769c-2.631,0-4.772,2.141-4.772,4.772v3.265c0,0.602,0.117,1.176,0.321,1.707c-2.094,0.504-3.657,2.388-3.657,4.635v3.264c0,0.55,0.098,1.077,0.271,1.57h-0.168c-2.631,0-4.772,2.141-4.772,4.772v3.264c0,0.55,0.099,1.077,0.271,1.57h-1.103c-2.631,0-4.772,2.141-4.772,4.772v3.265c0,0.708,0.159,1.378,0.437,1.983c-1.67,0.744-2.838,2.416-2.838,4.359v3.265c0,0.55,0.099,1.077,0.271,1.57H19.58c-0.884,0-1.601,0.717-1.601,1.601c0,0.884,0.717,1.601,1.601,1.601h4.506h8.005h1.663H46.5h9.668h12.746h2.3h7.368h9.843v3.202h-76.85v-3.202h1.601c0.884,0,1.601-0.717,1.601-1.601c0-0.884-0.717-1.601-1.601-1.601H9.974c-0.884,0-1.601,0.717-1.601,1.601v6.404c0,0.884,0.717,1.601,1.601,1.601h80.051c0.884,0,1.601-0.717,1.601-1.601v-6.404C91.626,74.732,90.91,74.016,90.025,74.016z M60.67,74.016c0.172-0.493,0.271-1.019,0.271-1.57v-3.265c0-0.551-0.099-1.077-0.271-1.57h2.641h1.103c-0.173,0.492-0.271,1.019-0.271,1.57v3.265c0,0.55,0.099,1.077,0.271,1.57H60.67z M38.256,74.016c0.172-0.493,0.271-1.019,0.271-1.57v-3.265c0-0.551-0.098-1.077-0.271-1.57h3.743c-0.172,0.492-0.271,1.019-0.271,1.57v3.265c0,0.55,0.098,1.077,0.271,1.57H38.256z M22.516,72.446v-3.265c0-0.865,0.704-1.57,1.57-1.57h2.401h4.002h1.601h1.601h0.062c0.866,0,1.57,0.705,1.57,1.57v3.265c0,0.865-0.705,1.57-1.57,1.57h-0.062h-1.601H30.49h-6.404C23.22,74.016,22.516,73.311,22.516,72.446z M24.917,62.84v-3.265c0-0.865,0.705-1.57,1.57-1.57h3.504c-0.172,0.493-0.271,1.02-0.271,1.57v3.265c0,0.55,0.098,1.077,0.271,1.57h-3.504C25.622,64.409,24.917,63.705,24.917,62.84z M30.521,53.233v-3.264c0-0.866,0.705-1.57,1.57-1.57h4.67h4.998c0.08,0,0.156,0.012,0.232,0.023c-0.167,0.486-0.262,1.005-0.262,1.547v3.264c0,0.542,0.095,1.06,0.262,1.547c-0.076,0.012-0.152,0.023-0.232,0.023h-5.603h-1.663h-2.402C31.225,54.803,30.521,54.099,30.521,53.233z M35.19,43.627v-3.264c0-0.865,0.705-1.57,1.57-1.57h1.903c-0.172,0.492-0.271,1.019-0.271,1.57v3.264c0,0.55,0.099,1.077,0.271,1.57H36.76C35.895,45.197,35.19,44.493,35.19,43.627z M38.526,34.021v-3.265c0-0.865,0.705-1.57,1.57-1.57h6.271h0.436c-0.172,0.493-0.271,1.019-0.271,1.57v3.265c0,0.55,0.098,1.077,0.271,1.569h-0.373h-3.265h-3.068C39.231,35.59,38.526,34.886,38.526,34.021z M44.797,24.415V21.15c0-0.865,0.704-1.57,1.57-1.57h9.668c0.866,0,1.57,0.705,1.57,1.57v3.265c0,0.865-0.704,1.57-1.57,1.57h-4.732h-1.539h-3.397C45.501,25.985,44.797,25.28,44.797,24.415z M62.541,30.756v3.265c0,0.865-0.704,1.569-1.57,1.569H56.24h-1.975h-1.432h-0.321h-1.209c-0.281,0-0.541-0.08-0.769-0.21c-0.475-0.27-0.8-0.775-0.8-1.36v-3.265c0-0.585,0.325-1.09,0.8-1.36c0.228-0.13,0.488-0.21,0.769-0.21h1.216h1.746h1.769h4.936C61.837,29.187,62.541,29.891,62.541,30.756z M67.478,40.363v3.264c0,0.866-0.704,1.57-1.57,1.57h-5.799h-2.775c0.173-0.492,0.271-1.019,0.271-1.57v-3.264c0-0.55-0.098-1.077-0.271-1.57h3.637h4.937C66.773,38.793,67.478,39.498,67.478,40.363z M71.347,49.969v3.264c0,0.866-0.704,1.57-1.571,1.57h-3.202h-3.264H60.67c0.172-0.492,0.271-1.019,0.271-1.57v-3.264c0-0.55-0.099-1.077-0.271-1.57h5.238h3.869C70.643,48.399,71.347,49.103,71.347,49.969z M74.549,59.575v3.265c0,0.865-0.704,1.57-1.571,1.57h-0.164h-1.601h-0.138c0.053-0.152,0.1-0.308,0.138-0.468c0.084-0.355,0.134-0.722,0.134-1.102v-3.265c0-0.379-0.049-0.747-0.134-1.102c-0.038-0.159-0.084-0.315-0.138-0.467h0.138h1.601h0.164C73.845,58.005,74.549,58.709,74.549,59.575z M57.739,72.446c0,0.865-0.705,1.57-1.571,1.57H46.5c-0.865,0-1.57-0.705-1.57-1.57v-3.265c0-0.865,0.704-1.57,1.57-1.57h9.668c0.866,0,1.571,0.705,1.571,1.57V72.446z M36.155,64.409h-1.663c-0.294,0-0.565-0.086-0.801-0.227c-0.458-0.274-0.769-0.771-0.769-1.342v-3.265c0-0.572,0.311-1.068,0.769-1.343c0.235-0.141,0.507-0.227,0.801-0.227h1.663h2.753h1.748h1.102h2.402c0.866,0,1.57,0.704,1.57,1.57v3.265c0,0.865-0.704,1.57-1.57,1.57h-3.504h-1.753H36.155z M55.607,48.399h0.561c0.385,0,0.733,0.144,1.006,0.374c0.342,0.289,0.565,0.715,0.565,1.196v3.264c0,0.481-0.222,0.906-0.563,1.195c-0.274,0.23-0.623,0.375-1.008,0.375h-0.561H46.5c-0.079,0-0.155-0.012-0.231-0.023c-0.755-0.113-1.339-0.76-1.339-1.547v-3.264c0-0.786,0.583-1.434,1.339-1.547c0.076-0.011,0.152-0.023,0.231-0.023h6.333H55.607z M48.662,58.005h3.743c-0.172,0.493-0.271,1.02-0.271,1.57v3.265c0,0.55,0.098,1.077,0.271,1.57h-3.743c0.172-0.493,0.271-1.019,0.271-1.57v-3.265C48.933,59.025,48.834,58.498,48.662,58.005z M49.179,38.793h0.585h1.166h0.373h0.435h1.095c0.21,0,0.409,0.043,0.592,0.118c0.572,0.234,0.977,0.796,0.977,1.452v3.264c0,0.656-0.405,1.218-0.977,1.452c-0.183,0.075-0.383,0.118-0.592,0.118h-1.095H50.93h-1.751H46.5h-0.071h-3.265c-0.865,0-1.57-0.704-1.57-1.57v-3.264c0-0.865,0.705-1.57,1.57-1.57h3.265H49.179z M60.559,64.409H58.81h-1.903c-0.865,0-1.57-0.705-1.57-1.57v-3.265c0-0.865,0.705-1.57,1.57-1.57h1.903h1.299h0.452h2.75h3.264c0.866,0,1.571,0.704,1.571,1.57v3.265c0,0.865-0.704,1.57-1.571,1.57h-3.264H60.559z M69.613,74.016h-0.699c-0.865,0-1.57-0.705-1.57-1.57v-3.265c0-0.865,0.705-1.57,1.57-1.57h0.699h1.601h1.601h0.164h5.603c0.866,0,1.571,0.705,1.571,1.57v3.265c0,0.865-0.704,1.57-1.571,1.57h-5.767h-1.601H69.613z"
          fill="#000000" class="color000 svgShape"/>
</svg>