<svg xmlns="http://www.w3.org/2000/svg" viewBox="0 0 32 32" width="24" height="24">
    <path d="M26,6.5a.5.5,0,0,0,0,1h2a.5.5,0,0,0,0-1h-.5V3a.50024.50024,0,0,0-.89062-.3125l-1,1.25a.50024.50024,0,1,0,.78125.625L26.5,4.42578V6.5Zm0,12h2a.5.5,0,0,0,0-1H26.5v-1H28a.49971.49971,0,0,0,.5-.5V14a.49971.49971,0,0,0-.5-.5H26a.5.5,0,0,0,0,1h1.5v1H26a.49971.49971,0,0,0-.5.5v2A.49971.49971,0,0,0,26,18.5Zm0,10a.5.5,0,0,0,0,1h2a.49971.49971,0,0,0,.5-.5V25a.49971.49971,0,0,0-.5-.5H26a.5.5,0,0,0,0,1h1.5v1H26a.5.5,0,0,0,0,1h1.5v1Zm-15.75-13H9.40771A1.45632,1.45632,0,0,0,8.5,14.58777V13.25a.5.5,0,0,0-1,0v1.35614a1.46953,1.46953,0,0,0-.41992.20929A1.5,1.5,0,0,0,7.813,17.48828a1.559,1.559,0,0,0,.19043.0127A1.498,1.498,0,0,0,9.41229,16.5H10.25a.5.5,0,0,0,0-1Zm-1.94336.89551a.47856.47856,0,0,1-.36865.10059A.49993.49993,0,0,1,7.99854,15.5a.46159.46159,0,0,1,.06348.00391.49726.49726,0,0,1,.33252.18945H8.395a.50086.50086,0,0,1-.08838.70215ZM8,10a6,6,0,1,0,6,6A6.00656,6.00656,0,0,0,8,10ZM8,21a5,5,0,1,1,5-5A5.00589,5.00589,0,0,1,8,21Zm14.05054-4.5a5.00007,5.00007,0,1,0,0-1H19V7a1.50164,1.50164,0,0,1,1.5-1.5h1.55054a5.00007,5.00007,0,1,0,0-1H20.5A2.50263,2.50263,0,0,0,18,7v8.5H15.97467a8,8,0,1,0,0,1H18V25a2.50263,2.50263,0,0,0,2.5,2.5h1.55054a5.00007,5.00007,0,1,0,0-1H20.5A1.50164,1.50164,0,0,1,19,25V16.5ZM27,12a4,4,0,1,1-4,4A4.00427,4.00427,0,0,1,27,12ZM27,1a4,4,0,1,1-4,4A4.00427,4.00427,0,0,1,27,1ZM8,23a7,7,0,1,1,7-7A7.00818,7.00818,0,0,1,8,23Zm19,0a4,4,0,1,1-4,4A4.00427,4.00427,0,0,1,27,23Z"
          fill="#000000" class="color000 svgShape"/>
</svg>