<svg xmlns="http://www.w3.org/2000/svg" enable-background="new 0 0 48 48" viewBox="0 0 48 48" width="24" height="24">
    <path fill="#010101"
          d="M12.1 18c-1 0-2-.4-2.7-1.1L1.6 9c-1.5-1.5-1.5-3.9 0-5.3l2.1-2.1c1.4-1.4 3.9-1.4 5.3 0l7.8 7.8c1.5 1.5 1.5 3.9 0 5.3l-2.1 2.1C14 17.6 13.1 18 12.1 18zM6.4 2.5C5.9 2.5 5.5 2.7 5.1 3L3 5.1C2.3 5.8 2.3 6.9 3 7.6l7.8 7.8c.7.7 1.8.7 2.5 0l2.1-2.1c.7-.7.7-1.8 0-2.5L7.6 3C7.3 2.7 6.9 2.5 6.4 2.5zM26.8 32.8c-1 0-2-.4-2.7-1.1l-7.8-7.8c-.7-.7-1.1-1.7-1.1-2.7s.4-2 1.1-2.7l2.1-2.1c1.4-1.4 3.9-1.4 5.3 0l7.8 7.8c.7.7 1.1 1.7 1.1 2.7s-.4 2-1.1 2.7l-2.1 2.1C28.8 32.4 27.9 32.8 26.8 32.8zM21.2 17.3c-.5 0-.9.2-1.3.5l-2.1 2.1c-.3.3-.5.8-.5 1.3s.2.9.5 1.3l7.8 7.8c.7.7 1.8.7 2.5 0l2.1-2.1c.3-.3.5-.8.5-1.3s-.2-.9-.5-1.3l-7.8-7.8C22.1 17.4 21.6 17.3 21.2 17.3zM41.6 47.5c-1 0-2-.4-2.7-1.1l-7.8-7.8c-1.5-1.5-1.5-3.9 0-5.3l2.1-2.1c1.4-1.4 3.9-1.4 5.3 0l7.8 7.8c1.5 1.5 1.5 3.9 0 5.3l-2.1 2.1C43.6 47.1 42.6 47.5 41.6 47.5zM35.9 32c-.5 0-.9.2-1.3.5l-2.1 2.1c-.7.7-.7 1.8 0 2.5l7.8 7.8c.7.7 1.8.7 2.5 0l2.1-2.1c.7-.7.7-1.8 0-2.5l-7.8-7.8C36.8 32.2 36.4 32 35.9 32z"
    />
    <rect width="10.7" height="2" x="11.3" y="15.6" fill="#010101" transform="rotate(45.001 16.615 16.615)"
    />
    <rect width="10.7" height="2" x="26" y="30.4" fill="#010101" transform="rotate(45.001 31.386 31.385)"
    />
</svg>