<svg xmlns="http://www.w3.org/2000/svg" enable-background="new 0 0 67 67" viewBox="0 0 67 67" width="24" height="24">
    <path d="M54.3,57.9h-6.1c-1.7,0-3.2,1.2-3.6,2.8h-1.4c-0.4-1.6-1.9-2.8-3.6-2.8h-6.1c-1.7,0-3.2,1.2-3.6,2.8h-1.4
	c-0.4-1.6-1.9-2.8-3.6-2.8h-6.1c-1.7,0-3.2,1.2-3.6,2.8h-1.3v-1.3c1.6-0.4,2.8-1.9,2.8-3.6v-6.1c0-1.7-1.2-3.2-2.8-3.6v-1.4
	c1.6-0.4,2.8-1.9,2.8-3.6v-6.1c0-1.7-1.2-3.2-2.8-3.6v-1.4c1.6-0.4,2.8-1.9,2.8-3.6v-6.1c0-1.7-1.2-3.2-2.8-3.6V15
	c1.6-0.4,2.8-1.9,2.8-3.6V5.3c0-2.1-1.7-3.8-3.8-3.8S8.9,3.2,8.9,5.3v6.1c0,1.7,1.2,3.2,2.8,3.6v1.4c-1.6,0.4-2.8,1.9-2.8,3.6v6.1
	c0,1.7,1.2,3.2,2.8,3.6v1.4c-1.6,0.4-2.8,1.9-2.8,3.6v6.1c0,1.7,1.2,3.2,2.8,3.6V46c-1.6,0.4-2.8,1.9-2.8,3.6v6.1
	c0,1.7,1.2,3.2,2.8,3.6v1.3h-1.4c-0.6,0-1,0.4-1,1s0.4,1,1,1h1.4v1.2c0,0.6,0.4,1,1,1s1-0.4,1-1v-1.2H15c0.4,1.6,1.9,2.8,3.6,2.8
	h6.1c1.7,0,3.2-1.2,3.6-2.8h1.4c0.4,1.6,1.9,2.8,3.6,2.8h6.1c1.7,0,3.2-1.2,3.6-2.8h1.4c0.4,1.6,1.9,2.8,3.6,2.8h6.1
	c2.1,0,3.8-1.7,3.8-3.8C58.1,59.6,56.4,57.9,54.3,57.9z M10.9,11.4V5.3c0-1,0.8-1.8,1.8-1.8s1.8,0.8,1.8,1.8v6.1
	c0,0.6-0.3,1.2-0.8,1.5v-0.5c0-0.6-0.4-1-1-1s-1,0.4-1,1v0.5C11.2,12.5,10.9,12,10.9,11.4z M10.9,26.2v-6.1c0-0.6,0.3-1.2,0.8-1.5
	v0.5c0,0.6,0.4,1,1,1s1-0.4,1-1v-0.5c0.5,0.3,0.8,0.9,0.8,1.5v6.1c0,0.6-0.3,1.2-0.8,1.5V27c0-0.6-0.4-1-1-1s-1,0.4-1,1v0.6
	C11.2,27.3,10.9,26.8,10.9,26.2z M10.9,40.9v-6.1c0-0.6,0.3-1.2,0.8-1.5V34c0,0.6,0.4,1,1,1s1-0.4,1-1v-0.6c0.5,0.3,0.8,0.9,0.8,1.5
	v6.1c0,0.6-0.3,1.2-0.8,1.5v-0.3c0-0.6-0.4-1-1-1s-1,0.4-1,1v0.3C11.2,42.1,10.9,41.6,10.9,40.9z M10.9,55.7v-6.1
	c0-0.6,0.3-1.2,0.8-1.5v0.3c0,0.6,0.4,1,1,1s1-0.4,1-1v-0.3c0.5,0.3,0.8,0.9,0.8,1.5v6.1c0,0.6-0.3,1.2-0.8,1.5v-1c0-0.6-0.4-1-1-1
	s-1,0.4-1,1v1C11.2,56.9,10.9,56.4,10.9,55.7z M24.7,63.5h-6.1c-0.6,0-1.2-0.3-1.5-0.8h0.7c0.6,0,1-0.4,1-1s-0.4-1-1-1h-0.7
	c0.3-0.5,0.9-0.8,1.5-0.8h6.1c0.6,0,1.2,0.3,1.5,0.8h-0.4c-0.6,0-1,0.4-1,1s0.4,1,1,1h0.4C25.9,63.2,25.4,63.5,24.7,63.5z
	 M39.5,63.5h-6.1c-0.6,0-1.2-0.3-1.5-0.8h0.4c0.6,0,1-0.4,1-1s-0.4-1-1-1H32c0.3-0.5,0.9-0.8,1.5-0.8h6.1c0.6,0,1.2,0.3,1.5,0.8
	h-0.2c-0.6,0-1,0.4-1,1s0.4,1,1,1H41C40.7,63.2,40.1,63.5,39.5,63.5z M54.3,63.5h-6.1c-0.6,0-1.2-0.3-1.5-0.8H47c0.6,0,1-0.4,1-1
	s-0.4-1-1-1h-0.2c0.3-0.5,0.9-0.8,1.5-0.8h6.1c1,0,1.8,0.8,1.8,1.8C56.1,62.7,55.3,63.5,54.3,63.5z" fill="#000000"
    />
</svg>