<svg xmlns="http://www.w3.org/2000/svg" viewBox="0 0 64 64" width="24" height="24">
    <path d="M59.06737 30.4165l-4.09078-2.04539V10.69441a5.91524 5.91524 0 00-5.908-5.90852H45.2279a1.00055 1.00055 0 000 2.00094h3.84062a3.9117 3.9117 0 013.9071 3.90759V28.98956a1.0003 1.0003 0 00.553.89495l4.125 2.06249-4.125 2.062a1.00032 1.00032 0 00-.553.895V53.19861a3.91211 3.91211 0 01-3.9071 3.90807H45.2279a1.0006 1.0006 0 00.00005 2.00093h3.84061a5.91534 5.91534 0 005.908-5.909V35.5224L59.06737 33.477A1.72173 1.72173 0 0059.06737 30.4165zM10.02007 12.49212a1.00021 1.00021 0 001.00047-1.00047A4.01716 4.01716 0 0114.9326 6.8997l3.84155 0a1.00057 1.00057 0 000-2.00093H14.93252A5.91441 5.91441 0 009.0196 10.80139v.69026A1.00021 1.00021 0 0010.02007 12.49212zM18.77415 57.21318H14.93252a3.91128 3.91128 0 01-3.912-3.90221V35.01239a1.00034 1.00034 0 00-.553-.895l-4.124-2.061 4.124-2.06151a1.00031 1.00031 0 00.553-.89494V15.49352a1.00047 1.00047 0 00-2.00094 0v12.988l-4.09077 2.0449a1.72412 1.72412 0 00.001 3.06L9.0196 35.63084V53.311a5.91483 5.91483 0 005.91292 5.90314h3.84163A1.00055 1.00055 0 0018.77415 57.21318zM18.84157 12.43936v8.00373a1.00057 1.00057 0 002.00093 0V12.43936A1.00057 1.00057 0 0018.84157 12.43936z"
          fill="#000000"/>
    <path d="M43.94215 19.44263a1.00335 1.00335 0 01-.92036-.60575.99934.99934 0 00-1.316-.52124c-1.79849 1.10063.84618 3.30831 2.23636 3.12784a3.0066 3.0066 0 002.22071-5.00229 3.00664 3.00664 0 00-2.22076-5.00225c-1.39276-.17591-4.031 2.01311-2.23637 3.127a.99929.99929 0 001.3161-.52033 1.00088 1.00088 0 11.92036 1.39518h-.508a1.00057 1.00057 0 000 2.00093h.508A1.00058 1.00058 0 0143.94215 19.44263zM19.76 42.47241c-1.3916-.182-4.03384 2.03053-2.2345 3.128a1 1 0 001.31512-.52278A1.00074 1.00074 0 1119.76 46.47428h-.50708a1.00057 1.00057 0 000 2.00093h.507a1.00047 1.00047 0 11-.91938 1.39615 1.00029 1.00029 0 00-1.83677.7924 3.00886 3.00886 0 005.75752-1.18818 2.97825 2.97825 0 00-.78061-2.00084A3.00675 3.00675 0 0019.76 42.47241zM32.17787 11.43889a3.04628 3.04628 0 00-3.04341 3.04293v3.91833a3.04311 3.04311 0 006.08584-.00009V14.48182A3.04607 3.04607 0 0032.17787 11.43889zm1.0415 6.96126a1.04209 1.04209 0 01-2.084-.00005V14.48182a1.0421 1.0421 0 012.084 0zM47.07837 49.52062V45.60229a3.04311 3.04311 0 00-6.08584.0001v3.91823A3.04311 3.04311 0 0047.07837 49.52062zm-2.00093 0a1.0421 1.0421 0 01-2.084 0V45.60229a1.04209 1.04209 0 012.084 0zM19.84172 27.45332a.8983.8983 0 00-1.00015.86894V36.326a1.00047 1.00047 0 102.00093 0V28.32232A.91863.91863 0 0019.84172 27.45332zM43.02277 28.32226V36.326a1.00057 1.00057 0 002.00093 0V28.32226A1.00057 1.00057 0 0043.02277 28.32226zM32.17787 27.3384a1.00021 1.00021 0 00-1.00047 1.00047V36.3426a1.00047 1.00047 0 002.00094 0V28.33887A1.00021 1.00021 0 0032.17787 27.3384zM32.17787 42.47241a1.00021 1.00021 0 00-1.00047 1.00047v8.00374a1.00047 1.00047 0 002.00094 0V43.47288A1.00021 1.00021 0 0032.17787 42.47241z"
          fill="#000000"/>
</svg>