<svg xmlns="http://www.w3.org/2000/svg" viewBox="0 0 24 24" width="24" height="24">
    <path d="M2.685 24H.75C.336 24 0 23.664 0 23.25V.75C0 .336.336 0 .75 0h1.935c.414 0 .75.336.75.75S3.099 1.5 2.685 1.5H1.5v21h1.185c.414 0 .75.336.75.75S3.099 24 2.685 24zM23.25 24h-1.935c-.414 0-.75-.336-.75-.75s.336-.75.75-.75H22.5v-21h-1.185c-.414 0-.75-.336-.75-.75S20.901 0 21.315 0h1.935C23.664 0 24 .336 24 .75v22.5C24 23.664 23.664 24 23.25 24zM6.231 17c-.414 0-.75-.336-.75-.75v-8c0-.414.336-.75.75-.75s.75.336.75.75v8C6.981 16.664 6.645 17 6.231 17z"
          fill="#000000" class="color000 svgShape"/>
    <path d="M11.998,17C11.998,17,11.998,17,11.998,17c-0.415,0-0.75-0.336-0.75-0.75l0.002-1.315c0.007-2.911,0.012-4.668-0.371-5.052c-0.125-0.124-0.447-0.178-1.08-0.178c-2.16,0-2.885,1.2-2.915,1.251c-0.206,0.354-0.66,0.482-1.019,0.281c-0.357-0.201-0.489-0.646-0.294-1.007C5.617,10.148,6.708,8.205,9.8,8.205c0.771,0,1.572,0.048,2.142,0.619c0.822,0.823,0.818,2.264,0.809,6.114l-0.002,1.312C12.748,16.664,12.412,17,11.998,17z"
          fill="#000000" class="color000 svgShape"/>
    <path d="M17.727,17C17.727,17,17.727,17,17.727,17c-0.415,0-0.75-0.336-0.75-0.75l0.002-1.316c0.007-2.91,0.011-4.668-0.371-5.051c-0.125-0.124-0.447-0.178-1.079-0.178c-2.16,0-2.885,1.2-2.915,1.251c-0.207,0.354-0.661,0.482-1.019,0.281c-0.357-0.201-0.489-0.646-0.294-1.007c0.045-0.082,1.136-2.025,4.228-2.025c0.771,0,1.572,0.048,2.141,0.618c0.822,0.824,0.818,2.265,0.809,6.114l-0.002,1.312C18.477,16.664,18.141,17,17.727,17z"
          fill="#000000" class="color000 svgShape"/>
</svg>