<svg xmlns="http://www.w3.org/2000/svg" viewBox="0 0 500 500" width="24" height="24">
    <path fill="#000000"
          d="M249,266.429C249,249.488,235.222,236,218.281,236H202.27c-16.941,0-30.27,13.488-30.27,30.429V315h77		V266.429z"
          class="color474747 svgShape"/>
    <circle cx="210.275" cy="198.109" r="28.528" fill="#000000" class="color474747 svgShape"/>
    <path fill="#000000" d="M335,266.429C335,249.488,321.197,236,304.256,236h-16.011C271.304,236,258,249.488,258,266.429V315h77
		V266.429z" class="color474747 svgShape"/>
    <circle cx="296.251" cy="198.109" r="28.528" fill="#000000" class="color474747 svgShape"/>
    <path fill="#000000" d="M420,266.429C420,249.488,406.172,236,389.231,236H373.22c-16.941,0-30.22,13.488-30.22,30.429V315h77
		V266.429z" class="color474747 svgShape"/>
    <circle cx="381.226" cy="198.109" r="28.528" fill="#000000" class="color474747 svgShape"/>
    <path fill="#000000" d="M487.688,340.102l-27.846-31.987c-3.627-4.167-9.944-4.604-14.108-0.977
		c-4.166,3.626-4.604,9.942-0.978,14.107L458.471,337H177.96c-10.374,0-20.316-3.191-28.752-9.23l-14.125-10.258
		C143.685,306.103,149,291.918,149,276.561v-75.401C149,163.576,118.083,133,80.5,133S12,163.576,12,201.159v75.401
		c0,37.584,30.712,68.16,68.295,68.16c14.916,0,28.785-4.829,40.02-12.988l17.218,12.3C149.384,352.516,163.386,357,177.96,357
		h279.23l-12.281,13.47c-3.721,4.081-3.429,10.406,0.652,14.127c1.917,1.748,4.329,2.61,6.734,2.61c2.715,0,5.42-1.099,7.393-3.263
		l27.846-30.54C490.955,349.652,491.021,343.932,487.688,340.102z M80.295,324.721C53.74,324.721,32,303.116,32,276.561v-75.401
		C32,174.604,53.945,153,80.5,153s48.5,21.604,48.5,48.159v75.401c0,11.021-3.935,21.182-10.186,29.307l-24.863-17.723
		c-4.493-3.215-10.79-2.179-14.003,2.312c-3.214,4.491-2.205,10.737,2.286,13.952l20.546,14.764
		C96.082,322.708,88.38,324.721,80.295,324.721z" class="color474747 svgShape"/>
</svg>