<svg xmlns="http://www.w3.org/2000/svg" version="1.2" viewBox="0 0 100 100" width="24" height="24">
    <path d="M10,92.5l80,0c1.381,0,2.5,-1.119,2.5,-2.5L92.5,10c0,-1.381,-1.119,-2.5,-2.5,-2.5L10,7.5c-1.381,0,-2.5,1.119,-2.5,2.5l0,80C7.5,91.381,8.619,92.5,10,92.5ZM52.5,12.5l35,0l0,75l-35,0L52.5,12.5ZM12.5,12.5l35,0l0,75l-35,0L12.5,12.5Z"
          fill="#000000" class="color000 svgShape"/>
    <path d="M71.768 40.732c-.977-.977-2.559-.977-3.535 0-.977.976-.977 2.559 0 3.535l3.232 3.232L62.5 47.499c-1.381 0-2.5 1.119-2.5 2.5s1.119 2.5 2.5 2.5l8.965 0-3.232 3.232c-.977.976-.977 2.559 0 3.535C68.721 59.756 69.36 60 70 60s1.279-.244 1.768-.732l7.5-7.5c.977-.976.977-2.559 0-3.535L71.768 40.732zM37.5 47.5l-8.965 0 3.232-3.232c.977-.976.977-2.559 0-3.535-.977-.977-2.559-.977-3.535 0l-7.5 7.5c-.977.976-.977 2.559 0 3.535l7.5 7.5C28.721 59.756 29.36 60 30 60s1.279-.244 1.768-.732c.977-.976.977-2.559 0-3.535L28.535 52.5 37.5 52.5c1.381 0 2.5-1.119 2.5-2.5S38.881 47.5 37.5 47.5z"
          fill="#000000" class="color000 svgShape"/>
</svg>