<svg xmlns="http://www.w3.org/2000/svg" viewBox="0 0 128 128" width="24" height="24">
    <path
            d="M106.964 66.271c-2.793 0-5.403.777-7.648 2.107l-9.152-9.152a15.024 15.024 0 0 0 4.36-10.59c0-8.314-6.764-15.078-15.078-15.078-2.915 0-5.63.845-7.939 2.283l-9.146-9.146c2.53-2.698 4.092-6.313 4.092-10.294 0-8.314-6.764-15.078-15.078-15.078S36.297 8.086 36.297 16.4c0 3.862 1.472 7.379 3.869 10.049l-9.215 9.215a14.968 14.968 0 0 0-7.648-2.107c-8.314 0-15.078 6.764-15.078 15.078s6.764 15.078 15.078 15.078 15.078-6.764 15.078-15.078c0-3.985-1.565-7.604-4.099-10.302l9.144-9.144a14.965 14.965 0 0 0 7.949 2.289c2.797 0 5.41-.779 7.658-2.112l9.212 9.212c-2.401 2.672-3.877 6.191-3.877 10.058 0 3.984 1.564 7.602 4.097 10.3l-9.442 9.441a14.961 14.961 0 0 0-7.647-2.106c-8.314 0-15.078 6.764-15.078 15.078 0 2.77.764 5.359 2.073 7.592l-9.686 9.686a14.961 14.961 0 0 0-7.647-2.106c-8.314 0-15.078 6.764-15.078 15.078s6.764 15.078 15.078 15.078 15.078-6.764 15.078-15.078c0-3.985-1.565-7.604-4.1-10.303l9.011-9.011c2.703 2.56 6.342 4.142 10.349 4.142 3.804 0 7.274-1.427 9.93-3.76l8.629 8.629c-2.534 2.699-4.1 6.318-4.1 10.303 0 8.314 6.764 15.078 15.078 15.078s15.078-6.764 15.078-15.078-6.764-15.078-15.078-15.078c-2.793 0-5.402.777-7.647 2.106l-9.188-9.188a14.974 14.974 0 0 0 2.376-8.091c0-3.985-1.565-7.604-4.1-10.303l9.441-9.44a14.965 14.965 0 0 0 14.958.209l9.232 9.232c-2.534 2.699-4.099 6.317-4.099 10.302 0 8.314 6.764 15.078 15.078 15.078s15.078-6.764 15.078-15.078-6.764-15.077-15.078-15.077zm-83.661-8.215c-5.195 0-9.421-4.225-9.421-9.421s4.225-9.421 9.421-9.421 9.421 4.225 9.421 9.421-4.226 9.421-9.421 9.421zM41.954 16.4c0-5.195 4.225-9.421 9.421-9.421s9.421 4.225 9.421 9.421-4.225 9.421-9.421 9.421-9.421-4.226-9.421-9.421zM21.036 121.02c-5.195 0-9.421-4.225-9.421-9.421 0-5.195 4.225-9.421 9.421-9.421s9.421 4.225 9.421 9.421c-.001 5.196-4.226 9.421-9.421 9.421zm30.339-30.25c-5.195 0-9.421-4.225-9.421-9.421 0-5.195 4.225-9.421 9.421-9.421s9.421 4.225 9.421 9.421c-.001 5.195-4.226 9.421-9.421 9.421zm38.958 20.83c0 5.195-4.225 9.421-9.421 9.421-5.195 0-9.421-4.225-9.421-9.421 0-5.195 4.225-9.421 9.421-9.421s9.421 4.226 9.421 9.421zM70.025 48.636c0-5.195 4.225-9.421 9.421-9.421 5.195 0 9.421 4.225 9.421 9.421s-4.225 9.421-9.421 9.421c-5.195-.001-9.421-4.226-9.421-9.421zm36.939 42.134c-5.195 0-9.421-4.225-9.421-9.421 0-5.195 4.225-9.421 9.421-9.421 5.195 0 9.421 4.225 9.421 9.421 0 5.195-4.226 9.421-9.421 9.421z"
            fill="#000000"/>
</svg>
