<svg xmlns="http://www.w3.org/2000/svg" viewBox="0 0 64 64" width="24" height="24">
    <path d="M12.773 46.402a.75.75 0 0 1-.681-.434l-7.846-16.9a9.335 9.335 0 0 1-.96-4.161 9.2 9.2 0 0 1 .154-1.699l.008-.054.001-.006a9.494 9.494 0 0 1 9.335-7.74c5.238 0 9.5 4.261 9.5 9.499a9.382 9.382 0 0 1-.938 4.119l-7.894 16.943a.747.747 0 0 1-.679.433zM4.934 23.378l-.01.064a7.602 7.602 0 0 0-.137 1.464c0 1.237.273 2.419.813 3.514l7.174 15.454 7.218-15.492a7.922 7.922 0 0 0 .793-3.476c0-4.411-3.589-7.999-8-7.999a7.992 7.992 0 0 0-7.851 6.471z"
          fill="#000000"/>
    <path d="M12.785 29.547c-2.711 0-4.916-2.206-4.916-4.917s2.205-4.917 4.916-4.917c2.712 0 4.918 2.206 4.918 4.917s-2.206 4.917-4.918 4.917zm0-8.335c-1.884 0-3.416 1.533-3.416 3.417s1.532 3.417 3.416 3.417c1.885 0 3.418-1.533 3.418-3.417s-1.533-3.417-3.418-3.417zm42.058 27.381H9.157a.75.75 0 0 1 0-1.5h45.686a.75.75 0 0 1 0 1.5zm-3.642-2.191a.75.75 0 0 1-.681-.434l-7.846-16.9a9.335 9.335 0 0 1-.96-4.161 9.2 9.2 0 0 1 .154-1.699l.008-.054.001-.006c.838-4.485 4.765-7.74 9.337-7.74 5.237 0 9.498 4.261 9.498 9.499a9.382 9.382 0 0 1-.938 4.119L51.88 45.969a.747.747 0 0 1-.679.433zm-7.84-23.024-.01.064a7.602 7.602 0 0 0-.137 1.464c0 1.237.273 2.419.813 3.514l7.174 15.454 7.218-15.492a7.922 7.922 0 0 0 .793-3.476c0-4.411-3.588-7.999-7.998-7.999a7.994 7.994 0 0 0-7.853 6.471z"
          fill="#000000"/>
    <path d="M51.215 29.547c-2.712 0-4.918-2.206-4.918-4.917s2.206-4.917 4.918-4.917c2.711 0 4.916 2.206 4.916 4.917s-2.205 4.917-4.916 4.917zm0-8.335c-1.885 0-3.418 1.533-3.418 3.417s1.533 3.417 3.418 3.417c1.884 0 3.416-1.533 3.416-3.417s-1.532-3.417-3.416-3.417z"
          fill="#000000"/>
</svg>