<svg xmlns="http://www.w3.org/2000/svg" fill-rule="evenodd" stroke-linejoin="round" stroke-miterlimit="2"
     clip-rule="evenodd" viewBox="0 0 64 64" width="24" height="24">
    <path fill="#000000"
          d="M168.313,349.895C166.074,349.427 158.408,348.947 150.977,356.837C148.06,359.935 146.218,364.023 144.62,367.907C144.108,369.151 143.631,370.402 143.203,371.663C143.199,371.674 143.196,371.685 143.192,371.696C142.041,375.095 141.242,378.573 141.046,382.215C140.931,384.337 140.999,386.503 141.709,388.526C142.077,389.573 142.692,390.68 143.634,391.328C144.26,391.758 145.056,391.981 145.851,392.085C145.851,392.085 145.56,392.824 145.508,393.201C145.458,393.564 145.512,393.896 145.647,394.161C145.782,394.424 146.012,394.639 146.329,394.769C146.591,394.875 146.963,394.904 147.166,394.925C147.931,395.005 151.136,394.992 152,394.927L152,400.707C152,402.111 152.558,403.457 153.55,404.45C154.543,405.442 155.889,406 157.293,406C163.414,406 174.586,406 180.707,406C182.111,406 183.457,405.442 184.45,404.45C185.442,403.457 186,402.111 186,400.707L186,395.963C186.675,396.683 187.532,397.273 188.219,397.947C188.311,398.037 188.555,398.691 188.643,398.875C188.879,399.368 189.21,399.772 189.717,400.003C190.305,400.27 191.079,400.264 191.704,400.281C193.314,400.327 195.104,400.166 196.363,399.007C197.413,398.04 198.062,396.188 198.472,394.866C198.828,393.715 199.206,392.273 198.841,391.071C198.481,389.884 197.396,389.424 196.283,389.275C195.307,389.144 194.322,389.144 193.339,389.159C192.945,389.164 192.436,389.26 192.079,389.054C191.722,388.849 191.62,388.012 191.561,387.767C191.241,386.443 190.719,385.429 190.1,384.64C190.205,384.462 190.31,384.284 190.484,384.161C190.749,383.974 191.096,383.928 191.384,383.783C192.098,383.427 192.904,383.046 193.585,382.546C194.414,381.938 195.062,381.161 195.302,380.12C195.349,379.914 195.347,379.675 195.242,379.408C195.172,379.23 195.015,378.99 194.777,378.716C194.38,378.258 193.592,377.551 193.454,376.518C193.369,375.877 193.576,375.126 194.251,374.232C194.577,373.8 194.66,373.395 194.626,373.024C194.594,372.675 194.445,372.334 194.171,372.011C193.9,371.692 193.459,371.37 192.996,371.014C192.81,370.871 192.611,370.724 192.436,370.556C193.27,370.452 194.126,370.266 194.869,369.947C196.362,369.304 197.437,368.169 197.404,366.264C197.395,365.729 197.317,365.178 197.152,364.668C196.765,363.473 195.839,362.809 194.666,362.484C193.344,362.117 191.67,362.232 190.581,362.164C188.181,362.014 186.035,362.211 184.059,360.878C183.466,360.478 181.419,358.269 180.444,356.062C180.982,355.937 181.432,355.62 181.714,355.003C181.904,354.585 181.948,354.082 181.873,353.562C181.793,353.01 181.578,352.434 181.419,352.015C180.078,348.481 176.201,347.685 172.849,348.106C171.121,348.323 169.664,349.007 168.313,349.895ZM160,404L160,401L154.013,401C154.081,401.766 154.416,402.487 154.964,403.036C155.582,403.653 156.419,404 157.293,404L160,404ZM162,401L162,404L169,404L169,401L162,401ZM171,401L171,404L176,404L176,401L171,401ZM183.987,401L178,401L178,404L180.707,404C181.581,404 182.418,403.653 183.036,403.036C183.584,402.488 183.919,401.766 183.987,401ZM154,394.981L154,399L160,399L160,394.981L154,394.981ZM164.986,394.981L162,394.981L162,399L169,399L169,394.981L168.775,394.981C168.455,395.401 168.135,395.822 167.801,396.231C167.668,396.394 167.286,396.856 166.978,396.998C166.686,397.133 166.396,397.143 166.13,397.061C165.878,396.983 165.64,396.819 165.458,396.549C165.244,396.231 165.014,395.101 164.986,394.981ZM171,394.981L171,399L176,399L176,394.981L171,394.981ZM178,394.981L178,399L184,399L184,394.981L178,394.981ZM188.795,386.254C188.359,386.53 186.811,387.46 186.481,387.67C186.481,389.186 186.409,390.648 186.598,392.169C186.68,392.822 186.74,393.538 187.084,394.113C187.678,395.106 188.808,395.722 189.62,396.519C189.919,396.813 190.47,398.148 190.545,398.182C191.561,398.644 194.14,398.335 195.008,397.536C195.824,396.784 196.243,395.302 196.561,394.274C196.767,393.61 197.059,392.814 197.006,392.085C196.953,391.356 196.229,391.286 196.017,391.257C195.139,391.139 194.253,391.145 193.369,391.158C192.646,391.169 191.735,391.165 191.08,390.787C190.707,390.572 189.95,389.613 189.617,388.237C189.424,387.438 189.139,386.787 188.795,386.254ZM160.456,378.776C160.079,379.299 159.451,380.339 159.451,381.746C159.437,382.514 159.828,383.255 160.275,383.991C160.841,384.921 161.523,385.829 161.98,386.708C162.629,387.954 163.604,389.194 164.526,390.247C164.974,390.759 165.498,391.19 165.879,391.76C166.374,392.503 166.635,393.348 166.852,394.204C167.081,393.907 167.307,393.607 167.536,393.311C168.904,391.545 170.018,390.018 169.419,387.631C169.142,386.527 168.241,385.444 167.811,384.861C166.55,383.156 164.618,379.794 160.456,378.776ZM157.452,381.674L157.452,381.671C157.452,380.12 157.77,379.499 157.853,379.303C157.533,379.412 157.224,379.537 156.934,379.688C155.691,380.335 154.407,381.055 153.433,382.081C152.452,383.115 151.766,384.438 150.973,385.615C150.095,386.918 149.213,388.101 148.718,389.613C148.381,390.642 147.702,392.859 147.668,392.96C148.27,392.997 152.482,393.178 153.676,392.493C153.961,392.329 154.167,392.057 154.383,391.813C155.038,391.074 155.564,390.222 156.028,389.354C156.156,389.113 157.337,386.317 157.411,385.176C157.487,384.011 157.401,382.84 157.452,381.674ZM156.018,392.981L160,392.981L160,390L157.947,390C157.896,390.1 157.844,390.199 157.792,390.296C157.287,391.24 156.713,392.164 156.018,392.981ZM179.077,390.408C178.879,390.365 178,390 178,390L178,392.981L184,392.981L184,390L181.276,390C181.045,390.102 180.804,390.202 180.564,390.279C180.043,390.445 179.525,390.504 179.077,390.408ZM171,391.537L171,392.981L176,392.981L176,390L171.502,390C171.391,390.53 171.219,391.04 171,391.537ZM162,390.337L162,392.981L164.286,392.981C164.263,392.944 162.336,390.765 162,390.337ZM144.382,374.595C143.67,377.103 143.186,379.667 143.043,382.323C142.942,384.185 142.973,386.088 143.596,387.863C143.83,388.529 144.168,389.268 144.767,389.68C145.234,390.001 145.851,390.111 146.448,390.148C146.569,389.761 146.691,389.375 146.817,388.99C147.372,387.298 148.331,385.957 149.314,384.498C150.168,383.23 150.925,381.818 151.983,380.704C152.904,379.734 154.052,378.985 155.225,378.334C154.759,378.157 154.294,377.974 153.819,377.827C152.376,377.379 150.931,377.474 149.574,377.365C148.333,377.266 147.157,377.018 146.077,376.296C145.483,375.898 144.912,375.355 144.382,374.595ZM181.176,366.015C180.435,366.864 179.513,367.606 178.79,368.022C178.527,368.173 178.245,368.299 177.954,368.404C178.572,369.594 178.601,370.84 178.705,372.219C178.743,372.723 178.689,373.417 178.707,374.136C178.721,374.672 178.765,375.231 179.018,375.68L179.018,375.68C179.254,376.084 179.463,376.51 179.651,376.954C179.948,377.657 180.177,378.387 180.285,379.144C180.363,379.7 180.343,380.27 179.979,380.748C179.742,381.059 179.386,381.309 179.012,381.528C179.049,381.975 179.146,387.93 179.218,388.04C179.442,388.385 179.734,388.435 179.912,388.385C180.551,388.204 182.081,387.715 183.544,387.015C185.486,386.085 187.323,384.806 187.501,384.702C187.462,384.504 187.393,384.148 187.373,384.038C187.162,382.86 186.799,381.72 186.378,380.602C185.831,379.147 185.04,377.746 184.583,376.261C183.792,373.688 183.272,371.047 182.507,368.467C182.306,367.788 181.846,367.193 181.462,366.538C181.362,366.367 181.265,366.193 181.176,366.015ZM159.305,386.164C159.2,386.781 159.031,387.398 158.818,388L160.406,388C160.337,387.877 159.636,386.661 159.305,386.164ZM177.066,382.641C176.354,383.064 175.652,383.501 174.989,384.004C173.98,384.77 173.113,385.667 172.264,386.604C172.12,386.764 171.836,387.111 171.53,387.37C171.569,387.583 171.598,387.793 171.617,388L177.188,388C177.135,387.579 177.069,382.738 177.066,382.641ZM168.908,372.215C168.396,372.674 167.896,373.145 167.449,373.671C166.436,374.864 165.164,376.376 163.683,377.401C163.542,377.498 163.4,377.591 163.256,377.68C166.478,379.275 168.236,382.072 169.419,383.672C169.85,384.255 170.276,384.861 170.659,385.432L170.782,385.262C171.714,384.232 172.671,383.253 173.78,382.411C174.809,381.63 175.925,380.994 177.036,380.339C177.3,380.183 178.217,379.711 178.324,379.608C178.319,379.553 178.311,379.474 178.304,379.425C178.221,378.839 178.038,378.276 177.808,377.732C177.656,377.373 176.719,375.45 175.276,374.606C174.543,374.177 172.679,373.758 171.112,373.223C170.249,372.929 169.471,372.584 168.908,372.215ZM190.16,370.673C189.818,370.675 189.476,370.69 189.148,370.773C188.891,370.838 188.811,371.084 188.675,371.275C188.424,371.627 188.153,371.965 187.782,372.212C187.417,372.456 186.987,372.568 186.532,372.582C186.233,372.59 185.921,372.552 185.628,372.504C185.895,373.566 186.173,374.625 186.495,375.673C186.94,377.119 187.717,378.481 188.25,379.898C188.594,380.811 188.9,381.739 189.13,382.686C189.193,382.63 189.26,382.577 189.331,382.527C189.677,382.283 190.113,382.183 190.49,381.994C191.108,381.685 191.812,381.366 192.402,380.934C192.748,380.68 193.058,380.388 193.236,380.006C193.07,379.816 192.817,379.523 192.617,379.27C191.985,378.476 191.377,377.397 191.441,376.044C191.48,375.211 191.771,374.257 192.531,373.196C192.488,373.155 191.936,372.724 191.684,372.528C191.055,372.035 190.459,371.438 190.16,370.673ZM149.109,362.929C148.095,364.789 147.256,366.757 146.469,368.668C146.019,369.761 145.597,370.859 145.213,371.966C145.795,373.309 146.447,374.137 147.189,374.633C147.971,375.156 148.834,375.3 149.733,375.372C151.231,375.491 152.821,375.422 154.413,375.917C155.341,376.206 156.225,376.658 157.171,376.889C157.13,376.267 157.206,375.617 157.241,375.031C157.307,373.921 157.293,372.792 157.063,371.693C156.885,370.846 156.331,370.029 155.695,369.275C154.592,367.968 153.215,366.862 152.546,366.181C152.518,366.151 151.855,365.404 151.576,365.087C151.128,364.58 150.223,363.644 149.109,362.929ZM160.212,376.665C161.301,376.605 162.279,376.018 163.162,375.286C164.231,374.399 165.155,373.283 165.925,372.376C167.124,370.965 168.728,369.964 169.853,368.486C170.213,368.012 170.615,367.558 170.674,366.944C170.744,366.228 170.47,365.42 170.216,364.76C169.998,364.194 169.558,363.721 169.174,363.256C168.729,362.815 166.488,363.718 165.864,363.955C164.544,364.455 163.311,365.206 162.023,365.784C160.203,366.601 158.331,366.951 156.35,367.032C156.648,367.335 156.944,367.654 157.224,367.986C158.083,369.005 158.78,370.138 159.02,371.282C159.287,372.557 159.314,373.864 159.238,375.15C159.205,375.691 159.062,376.31 159.159,376.862C159.355,376.808 160.157,376.656 160.212,376.665ZM172.467,367.99C172.239,368.611 171.853,369.16 171.445,369.697C171.141,370.096 170.803,370.462 170.448,370.811C170.827,370.996 171.278,371.167 171.757,371.33C173.467,371.913 175.486,372.412 176.286,372.88C176.435,372.967 176.58,373.058 176.719,373.154C176.725,372.863 176.728,372.596 176.711,372.369C176.622,371.188 176.692,370.114 176.052,369.104C176.001,369.023 175.962,368.937 175.937,368.849C175.469,368.9 175.011,368.902 174.528,368.793C173.815,368.632 173.124,368.334 172.467,367.99ZM182.562,362.216C182.569,362.445 182.576,363.795 182.576,363.795C182.608,364.643 183.041,365.298 183.436,365.937C183.835,366.582 184.221,367.214 184.424,367.898C184.655,368.677 184.863,369.461 185.064,370.246C185.172,370.673 186.545,370.633 186.673,370.548C186.991,370.336 187.134,369.966 187.367,369.685C187.693,369.293 188.087,368.979 188.657,368.835C189.348,368.659 190.089,368.689 190.796,368.671C191.804,368.646 193.071,368.543 194.078,368.11C194.828,367.787 195.421,367.255 195.405,366.298C195.399,365.958 195.354,365.608 195.249,365.284C195.025,364.591 194.321,364.411 193.594,364.298C192.507,364.13 191.294,364.213 190.456,364.16C187.68,363.987 185.226,364.078 182.941,362.536C182.833,362.463 182.704,362.353 182.562,362.216ZM180.471,360.674C180.394,360.076 180.444,358.723 179.063,358.656C178.049,358.606 177.056,359.085 176.372,359.815C175.668,360.564 175.208,361.517 174.446,362.209C173.681,362.903 172.822,363.307 171.903,363.644C171.97,363.773 172.03,363.906 172.082,364.041C172.278,364.549 172.463,365.124 172.575,365.705C172.634,366.015 174.179,366.664 174.968,366.842C176,367.074 177.301,366.571 177.792,366.288C178.473,365.897 179.375,365.134 179.99,364.302C180.314,363.863 180.587,363.246 180.579,362.484C180.573,361.887 180.549,361.274 180.471,360.674ZM172.045,354.161C173.099,353.666 174.528,353.178 175.95,353.25C176.935,353.299 177.864,353.676 178.812,353.908C179.072,353.972 179.705,354.26 179.912,354.119C180.036,353.908 179.649,352.988 179.549,352.724C178.557,350.11 175.577,349.779 173.098,350.091C171.548,350.285 170.271,350.962 169.077,351.792C169.074,351.794 169.071,351.796 169.068,351.798C168.981,351.859 166.063,354.206 164.58,355.178C161.83,356.981 158.665,357.862 155.781,359.388C154.927,359.84 151.023,361.467 150.737,361.624C151.786,362.389 152.626,363.256 153.075,363.764C153.31,364.03 154.087,364.859 154.14,364.885C154.708,365.169 155.468,365.059 156.082,365.04C157.874,364.984 159.564,364.696 161.204,363.959C162.448,363.401 163.645,362.69 164.911,362.18C166.762,360.404 166.766,359.163 168.271,357.093C169.225,355.781 170.589,354.845 172.045,354.161ZM175.469,355.246C174.575,355.283 173.697,355.595 172.895,355.971C171.742,356.513 170.644,357.23 169.889,358.269C168.987,359.509 168.58,360.461 168.043,361.393C168.388,361.313 168.76,361.242 169.103,361.246C169.727,361.253 170.282,361.461 170.69,361.951C171.564,361.661 172.393,361.371 173.102,360.728C173.825,360.072 174.246,359.157 174.913,358.446C175.813,357.487 177.064,356.827 178.382,356.682C178.272,355.681 176.812,355.375 175.469,355.246ZM165.968,351.645C163.041,351.629 157.699,352.617 152.433,358.208C152.217,358.438 152.007,358.673 151.803,358.914C152.993,358.411 154.191,357.967 154.845,357.621C157.674,356.123 160.786,355.274 163.483,353.506C164.349,352.938 165.16,352.289 165.968,351.645Z"
          transform="translate(-138 -345)" class="color070707 svgShape"/>
</svg>